<svg xmlns="http://www.w3.org/2000/svg" xmlns:xlink="http://www.w3.org/1999/xlink" width="500" zoomAndPan="magnify" viewBox="0 0 375 374.999991" height="500" preserveAspectRatio="xMidYMid meet" version="1.0"><defs><clipPath id="23b2b50985"><path d="M 66 31.449219 L 310 31.449219 L 310 343.449219 L 66 343.449219 Z M 66 31.449219 " clip-rule="nonzero"/></clipPath></defs><path fill="#00ffff" d="M 152.738281 213.910156 L 168.054688 199.320312 C 168.054688 199.320312 167.972656 198.164062 167.972656 196.515625 C 165.75 197.421875 163.773438 197.835938 161.960938 198 C 159.488281 203.109375 156.441406 208.46875 152.738281 213.910156 Z M 152.738281 213.910156 " fill-opacity="1" fill-rule="nonzero"/><path fill="#00ffff" d="M 165.75 226.027344 C 162.453125 223.0625 160.558594 218.363281 159.65625 215.640625 C 157.183594 217.785156 154.382812 220.257812 151.667969 222.402344 C 152.65625 224.460938 154.136719 227.019531 156.441406 229.492188 C 159.984375 228.667969 163.359375 227.511719 165.75 226.027344 Z M 165.75 226.027344 " fill-opacity="1" fill-rule="nonzero"/><path fill="#ffab15" d="M 170.605469 186.292969 C 169.289062 186.707031 167.972656 187.035156 166.570312 187.28125 C 165.5 190.003906 164.347656 192.890625 162.949219 195.855469 C 164.429688 195.609375 166.160156 195.113281 168.054688 194.289062 C 168.300781 191.40625 168.878906 187.941406 170.605469 186.292969 Z M 170.605469 186.292969 " fill-opacity="1" fill-rule="nonzero"/><path fill="#ffab15" d="M 167.3125 224.792969 C 167.476562 224.710938 167.558594 224.546875 167.722656 224.460938 C 174.558594 217.457031 180.160156 212.179688 184.441406 212.589844 C 184.441406 212.589844 185.183594 211.273438 186.335938 209.128906 C 182.710938 210.695312 177.605469 213.25 172.996094 216.960938 C 172.996094 216.960938 168.546875 213.664062 167.558594 208.632812 C 167.558594 208.632812 164.925781 211.109375 161.21875 214.242188 C 161.960938 216.546875 163.855469 221.90625 167.3125 224.792969 Z M 167.3125 224.792969 " fill-opacity="1" fill-rule="nonzero"/><path fill="#ffab15" d="M 149.773438 285.960938 C 151.832031 288.023438 155.289062 291.15625 158.5 292.308594 C 158.5 292.308594 156.03125 286.785156 156.195312 277.71875 C 154.878906 278.871094 153.476562 280.109375 151.914062 281.261719 C 151.996094 281.261719 151.335938 283.488281 149.773438 285.960938 Z M 149.773438 285.960938 " fill-opacity="1" fill-rule="nonzero"/><path fill="#ffab15" d="M 140.386719 236.664062 C 135.363281 236.085938 127.949219 247.214844 130.421875 259.003906 L 134.703125 257.4375 C 134.703125 257.4375 136.597656 270.296875 149.113281 273.761719 C 149.113281 273.761719 138.574219 266.589844 137.421875 256.035156 C 136.597656 248.289062 139.644531 240.457031 141.375 236.746094 C 140.960938 236.664062 140.632812 236.664062 140.386719 236.664062 Z M 140.386719 236.664062 " fill-opacity="1" fill-rule="nonzero"/><path fill="#ffab15" d="M 150.019531 223.71875 C 148.042969 225.285156 146.148438 226.6875 144.667969 227.761719 C 146.5625 229.078125 148.371094 230.152344 149.855469 230.894531 C 151.335938 230.644531 152.738281 230.398438 154.21875 230.070312 C 152.324219 227.84375 151.007812 225.617188 150.019531 223.71875 Z M 150.019531 223.71875 " fill-opacity="1" fill-rule="nonzero"/><path fill="#ffab15" d="M 133.632812 220.011719 C 135.28125 221.082031 137.089844 222.402344 138.984375 223.804688 L 139.234375 220.753906 C 139.234375 220.753906 141.785156 218.609375 145.410156 214.488281 C 144.421875 214.324219 143.183594 213.992188 141.785156 213.332031 C 141.867188 213.332031 137.089844 216.136719 133.632812 220.011719 Z M 133.632812 220.011719 " fill-opacity="1" fill-rule="nonzero"/><path fill="#6d6e71" d="M 115.679688 226.851562 C 120.539062 227.511719 122.515625 229.242188 122.515625 229.242188 C 122.515625 229.242188 135.28125 225.699219 137.914062 232.210938 C 138.984375 232.128906 140.386719 232.046875 141.867188 231.882812 C 140.304688 230.976562 137.914062 229.492188 134.867188 226.769531 C 129.105469 221.90625 123.667969 218.03125 115.679688 226.851562 Z M 115.679688 226.851562 " fill-opacity="1" fill-rule="nonzero"/><path fill="#ffab15" d="M 157.597656 185.46875 C 159.40625 185.714844 161.136719 185.800781 162.867188 185.714844 C 164.183594 182.417969 165.417969 178.957031 166.40625 175.164062 C 166.324219 175.164062 166.242188 175.164062 166.160156 175.246094 C 164.019531 175.660156 162.125 175.90625 160.394531 176.070312 C 159.984375 178.542969 159.160156 181.761719 157.597656 185.46875 Z M 157.597656 185.46875 " fill-opacity="1" fill-rule="nonzero"/><path fill="#6d6e71" d="M 143.597656 306.816406 C 146.5625 306.652344 156.441406 302.449219 161.464844 300.222656 C 155.621094 297.667969 150.347656 294.207031 146.398438 289.917969 C 144.007812 291.898438 140.714844 293.214844 136.351562 292.308594 C 136.351562 292.308594 134.292969 293.957031 130.257812 295.441406 C 129.433594 297.335938 128.855469 299.070312 129.019531 299.976562 C 129.433594 302.285156 139.5625 307.066406 143.597656 306.816406 Z M 143.597656 306.816406 " fill-opacity="1" fill-rule="nonzero"/><path fill="#ffab15" d="M 123.503906 262.382812 C 123.503906 262.382812 127.046875 283.816406 146.230469 282.582031 C 146.230469 282.582031 130.914062 281.015625 126.796875 263.125 C 123.257812 247.710938 129.351562 236.664062 132.972656 233.367188 C 132.152344 232.707031 131.082031 232.210938 129.351562 232.375 C 124.328125 232.789062 116.339844 244 116.503906 252.65625 C 116.667969 261.394531 120.703125 263.375 123.503906 262.382812 Z M 123.503906 262.382812 " fill-opacity="1" fill-rule="nonzero"/><path fill="#00ffff" d="M 153.3125 193.628906 C 154.382812 194.539062 155.949219 195.445312 158.171875 195.855469 C 159.488281 193.300781 160.808594 190.582031 162.042969 187.695312 C 160.3125 187.695312 158.585938 187.613281 156.773438 187.367188 C 155.867188 189.34375 154.714844 191.40625 153.3125 193.628906 Z M 153.3125 193.628906 " fill-opacity="1" fill-rule="nonzero"/><path fill="#ffffff" d="M 140.304688 207.894531 C 141.125 210.035156 145.160156 211.023438 148.539062 210.859375 C 149.773438 209.292969 151.089844 207.480469 152.492188 205.5 C 151.089844 205.667969 149.277344 205.585938 147.21875 204.925781 C 141.703125 203.195312 139.148438 204.84375 140.304688 207.894531 Z M 140.304688 207.894531 " fill-opacity="1" fill-rule="nonzero"/><path fill="#ffab15" d="M 149.113281 199.402344 C 149.113281 199.402344 151.914062 201.378906 155.207031 201.050781 C 155.867188 199.980469 156.523438 198.824219 157.183594 197.585938 C 156.359375 197.421875 155.703125 197.175781 155.042969 196.929688 C 153.890625 196.433594 152.902344 195.855469 152.160156 195.195312 C 151.253906 196.597656 150.265625 198 149.113281 199.402344 Z M 149.113281 199.402344 " fill-opacity="1" fill-rule="nonzero"/><path fill="#ffab15" d="M 143.925781 236.417969 C 141.703125 240.125 138.328125 247.546875 140.386719 256.613281 L 145.492188 254.46875 C 145.492188 254.46875 151.503906 264.609375 157.761719 265.515625 C 157.761719 265.515625 151.503906 260.652344 149.609375 253.070312 C 148.125 246.886719 148.371094 239.136719 150.101562 235.34375 C 147.878906 235.839844 145.738281 236.25 143.925781 236.417969 Z M 143.925781 236.417969 " fill-opacity="1" fill-rule="nonzero"/><path fill="#00ffff" d="M 166.984375 173.019531 C 167.476562 171.125 167.890625 169.230469 168.300781 167.25 C 164.761719 168.40625 161.546875 169.722656 160.808594 170.546875 C 160.808594 170.546875 160.890625 171.785156 160.644531 174.011719 C 162.535156 173.847656 164.761719 173.515625 166.984375 173.019531 Z M 166.984375 173.019531 " fill-opacity="1" fill-rule="nonzero"/><path fill="#00ffff" d="M 167.394531 185.058594 C 173.160156 183.820312 177.9375 181.019531 180.898438 178.957031 C 181.066406 178.050781 181.804688 172.691406 181.3125 168.898438 C 178.511719 171.042969 174.972656 172.773438 170.855469 174.09375 C 170.03125 177.226562 168.960938 180.933594 167.394531 185.058594 Z M 167.394531 185.058594 " fill-opacity="1" fill-rule="nonzero"/><path fill="#ffab15" d="M 162.949219 271.617188 L 166.324219 273.511719 C 166.324219 273.511719 161.714844 287.855469 171.429688 296.84375 C 171.429688 296.84375 165.417969 285.632812 171.84375 262.300781 C 169.535156 265.023438 166.652344 268.074219 162.949219 271.617188 Z M 162.949219 271.617188 " fill-opacity="1" fill-rule="nonzero"/><path fill="#ffab15" d="M 179.582031 165.273438 C 178.347656 164.859375 175.628906 165.273438 172.664062 166.015625 C 172.417969 167.332031 172.007812 169.3125 171.429688 171.867188 C 174.804688 170.796875 178.101562 169.148438 180.816406 166.839844 C 180.570312 165.933594 180.160156 165.4375 179.582031 165.273438 Z M 179.582031 165.273438 " fill-opacity="1" fill-rule="nonzero"/><path fill="#ffab15" d="M 185.59375 219.597656 C 185.59375 219.597656 179.335938 218.773438 176.042969 222.484375 C 172.746094 226.195312 173.570312 231.222656 177.769531 231.46875 C 177.769531 231.46875 176.042969 241.941406 183.453125 245.648438 C 179.007812 237.488281 180.488281 223.96875 185.59375 219.597656 Z M 185.59375 219.597656 " fill-opacity="1" fill-rule="nonzero"/><path fill="#ffffff" d="M 177.851562 197.257812 C 176.617188 196.597656 177.195312 190.332031 177.523438 187.613281 L 176.371094 188.191406 C 174.722656 190.992188 172.746094 196.433594 177.441406 201.378906 L 175.136719 211.519531 C 175.136719 211.519531 183.617188 205.585938 189.050781 203.523438 C 190.945312 199.566406 193.167969 194.621094 195.226562 189.097656 C 188.96875 192.640625 178.921875 197.835938 177.851562 197.257812 Z M 177.851562 197.257812 " fill-opacity="1" fill-rule="nonzero"/><path fill="#ffffff" d="M 243.070312 186.871094 C 239.039062 193.714844 224.214844 209.707031 215.816406 211.601562 C 215.816406 211.601562 214.085938 213.746094 216.0625 219.269531 L 222.898438 217.703125 C 223.472656 212.425781 226.683594 205.914062 238.707031 204.265625 C 238.871094 204.265625 239.039062 204.265625 239.121094 204.183594 C 244.472656 194.703125 260.363281 170.796875 283.09375 176.320312 C 283.09375 176.320312 284.164062 169.640625 271.976562 169.230469 C 259.789062 168.816406 247.191406 179.945312 243.070312 186.871094 Z M 243.070312 186.871094 " fill-opacity="1" fill-rule="nonzero"/><path fill="#ffab15" d="M 201.488281 193.628906 C 210.875 193.714844 218.367188 188.023438 221.496094 185.140625 C 221.746094 181.101562 221.828125 176.730469 221.578125 172.195312 C 216.886719 178.875 209.804688 180.933594 205.523438 181.59375 C 204.535156 185.46875 203.214844 189.507812 201.488281 193.628906 Z M 201.488281 193.628906 " fill-opacity="1" fill-rule="nonzero"/><path fill="#6d6e71" d="M 219.769531 139.632812 C 219.769531 139.632812 219.851562 139.714844 219.851562 139.714844 C 219.933594 139.550781 220.097656 139.46875 220.179688 139.304688 C 220.015625 139.46875 219.851562 139.550781 219.769531 139.632812 Z M 219.769531 139.632812 " fill-opacity="1" fill-rule="nonzero"/><path fill="#00ffff" d="M 195.804688 205.5 C 200.664062 206.160156 210.132812 206.078125 220.097656 198.90625 C 220.507812 196.105469 221.003906 192.3125 221.332031 187.941406 C 217.460938 191.15625 210.546875 195.691406 201.816406 195.691406 C 201.40625 195.691406 201.074219 195.691406 200.664062 195.691406 C 199.261719 198.90625 197.699219 202.203125 195.804688 205.5 Z M 195.804688 205.5 " fill-opacity="1" fill-rule="nonzero"/><path fill="#00ffff" d="M 206.097656 179.535156 C 210.546875 178.792969 217.460938 176.320312 221.414062 168.734375 C 221.085938 165.023438 220.589844 161.234375 219.851562 157.605469 C 217.625 160.902344 213.839844 165.105469 208.320312 167.910156 C 207.828125 171.453125 207.085938 175.410156 206.097656 179.535156 Z M 206.097656 179.535156 " fill-opacity="1" fill-rule="nonzero"/><path fill="#00ffff" d="M 208.402344 142.519531 C 208.402344 142.519531 208.980469 146.0625 209.144531 151.917969 C 211.367188 150.269531 214.003906 147.714844 215.402344 144.582031 C 214.992188 143.671875 214.496094 142.847656 214.003906 141.941406 C 212.355469 142.273438 210.460938 142.519531 208.402344 142.519531 Z M 208.402344 142.519531 " fill-opacity="1" fill-rule="nonzero"/><path fill="#6d6e71" d="M 196.957031 184.316406 C 199.429688 177.226562 201.40625 169.640625 201.980469 162.632812 C 201.980469 162.632812 195.226562 167.085938 186.828125 164.613281 C 186.828125 164.613281 193.085938 170.464844 182.21875 191.40625 Z M 196.957031 184.316406 " fill-opacity="1" fill-rule="nonzero"/><path fill="#ffab15" d="M 208.570312 165.4375 C 214.003906 162.304688 217.378906 157.851562 219.191406 154.800781 C 218.449219 152 217.625 149.363281 216.472656 146.804688 C 214.496094 150.269531 211.449219 152.742188 209.144531 154.308594 C 209.226562 157.523438 209.0625 161.316406 208.570312 165.4375 Z M 208.570312 165.4375 " fill-opacity="1" fill-rule="nonzero"/><path fill="#ffab15" d="M 169.289062 258.921875 C 169.289062 258.921875 162.703125 254.882812 160.972656 247.296875 C 159.820312 242.1875 160.726562 236.167969 161.382812 232.789062 C 158.75 233.449219 155.785156 234.109375 152.820312 234.765625 C 151.089844 237.898438 149.359375 243.835938 152.65625 252.328125 L 157.761719 249.769531 C 157.84375 249.769531 162.703125 260.570312 169.289062 258.921875 Z M 169.289062 258.921875 " fill-opacity="1" fill-rule="nonzero"/><path fill="#ffffff" d="M 123.832031 158.101562 C 123.832031 158.101562 118.398438 159.667969 113.621094 159.582031 C 115.1875 160.65625 119.140625 162.386719 123.832031 158.101562 Z M 123.832031 158.101562 " fill-opacity="1" fill-rule="nonzero"/><path fill="#6d6e71" d="M 131.492188 214.816406 C 132.5625 213.582031 134.125 211.765625 135.28125 210.859375 C 135.28125 210.859375 132.316406 203.523438 138.820312 199.152344 C 138.820312 199.152344 141.785156 198 143.679688 198.328125 C 145.574219 198.660156 149.527344 193.628906 147.136719 190.746094 C 144.832031 188.023438 129.351562 185.550781 120.539062 204.511719 C 124.902344 206.328125 128.773438 209.707031 131.492188 214.816406 Z M 131.492188 214.816406 " fill-opacity="1" fill-rule="nonzero"/><path fill="#ffffff" d="M 175.875 153.894531 C 175.875 153.894531 179.417969 152.496094 179.335938 150.929688 C 179.171875 149.363281 175.054688 147.054688 170.441406 148.042969 C 167.808594 148.621094 160.972656 153.320312 154.960938 158.265625 C 160.394531 156.535156 170.03125 153.730469 175.875 153.894531 Z M 175.875 153.894531 " fill-opacity="1" fill-rule="nonzero"/><path fill="#ffffff" d="M 170.6875 119.023438 C 165.832031 120.753906 155.785156 128.753906 156.277344 129.492188 C 156.691406 130.152344 161.546875 130.320312 162.207031 130.320312 C 162.867188 130.152344 163.441406 129.988281 164.019531 129.742188 C 170.03125 125.207031 170.6875 119.023438 170.6875 119.023438 Z M 170.6875 119.023438 " fill-opacity="1" fill-rule="nonzero"/><path fill="#6d6e71" d="M 193.167969 128.175781 C 187.324219 128.011719 184.027344 129.328125 182.054688 136.914062 C 182.054688 136.914062 180.488281 126.445312 186.171875 121.910156 C 186.910156 121.332031 187.652344 120.839844 188.394531 120.507812 C 189.546875 118.613281 191.109375 116.140625 193.003906 112.925781 C 199.261719 102.453125 196.546875 94.457031 193.417969 90.996094 C 190.289062 87.535156 189.300781 83.660156 189.300781 83.660156 C 189.300781 83.660156 187.980469 92.644531 191.027344 100.3125 C 191.027344 100.3125 183.125 84.648438 187.40625 67.253906 C 187.40625 67.253906 191.933594 82.667969 196.214844 87.863281 C 200.5 92.972656 202.476562 101.628906 200.5 106.328125 C 200.5 106.328125 206.511719 99.652344 203.464844 92.5625 C 200.5 85.472656 185.265625 61.402344 189.710938 49.445312 C 189.710938 49.445312 175.546875 72.199219 190.121094 107.152344 L 187.160156 104.761719 C 187.160156 104.761719 165.089844 109.296875 144.089844 123.640625 C 144.089844 123.640625 142.363281 118.035156 143.019531 114.40625 C 143.019531 114.40625 141.292969 117.046875 140.136719 118.449219 C 138.984375 119.847656 133.714844 120.34375 133.304688 123.558594 C 133.304688 123.558594 137.339844 122.570312 137.421875 126.445312 C 137.585938 130.320312 135.527344 132.460938 135.527344 132.460938 C 135.527344 132.460938 139.066406 129.988281 140.386719 127.597656 C 140.386719 127.597656 135.773438 141.449219 115.679688 155.378906 C 115.679688 155.378906 117.820312 156.78125 125.234375 153.484375 C 132.644531 150.1875 137.257812 148.371094 138.410156 151.339844 C 139.5625 154.308594 135.527344 160.492188 129.105469 162.058594 C 129.105469 162.058594 134.785156 156.453125 132.234375 156.617188 C 129.679688 156.78125 122.515625 162.304688 122.679688 165.765625 C 122.84375 169.230469 129.433594 172.609375 133.960938 171.453125 C 138.574219 170.300781 159.820312 145.734375 170.855469 143.097656 C 170.855469 143.097656 182.710938 145.570312 183.453125 149.855469 C 184.195312 154.144531 182.300781 157.027344 172.996094 157.851562 C 165.171875 158.59375 151.503906 163.457031 147.386719 164.941406 C 146.398438 165.933594 145.574219 166.921875 144.996094 167.664062 C 140.714844 173.515625 134.539062 176.402344 131.820312 175.246094 C 131.820312 175.246094 131.65625 178.792969 134.785156 179.285156 C 137.914062 179.699219 145.242188 178.460938 145.242188 178.460938 C 145.242188 178.460938 157.265625 163.128906 169.289062 162.550781 C 181.3125 161.976562 184.03125 158.429688 186.003906 154.144531 C 187.980469 149.855469 187.570312 145.980469 186.253906 145.15625 C 186.253906 145.15625 193.003906 148.289062 188.722656 156.78125 C 188.722656 156.78125 194.898438 160.65625 199.015625 149.773438 C 203.132812 139.058594 199.015625 128.339844 193.167969 128.175781 Z M 174.804688 120.839844 C 172.832031 125.535156 163.113281 130.484375 163.113281 130.484375 C 163.441406 130.234375 163.773438 129.988281 164.101562 129.824219 C 163.523438 130.070312 162.867188 130.234375 162.289062 130.402344 C 162.371094 130.402344 162.371094 130.402344 162.371094 130.402344 C 154.550781 131.800781 144.089844 142.023438 144.089844 142.023438 C 150.84375 134.523438 155.125 123.804688 155.125 123.804688 C 168.878906 113.417969 180.984375 112.183594 180.984375 112.183594 C 178.839844 112.757812 176.78125 116.058594 174.804688 120.839844 Z M 174.804688 120.839844 " fill-opacity="1" fill-rule="nonzero"/><path fill="#ffab15" d="M 148.539062 103.445312 C 148.539062 103.277344 148.539062 103.03125 148.539062 102.867188 C 147.878906 104.761719 147.46875 108.226562 150.019531 113.171875 L 148.125 117.625 C 148.125 117.625 158.007812 110.449219 169.453125 107.484375 L 171.347656 102.785156 C 171.347656 102.785156 180.242188 99.074219 182.792969 97.507812 L 182.136719 95.199219 C 177.277344 96.683594 163.523438 101.382812 151.089844 110.121094 C 151.007812 110.039062 148.703125 105.753906 148.539062 103.445312 Z M 148.539062 103.445312 " fill-opacity="1" fill-rule="nonzero"/><path fill="#6d6e71" d="M 148.371094 99.734375 C 148.125 97.507812 147.386719 94.707031 145.160156 91.984375 C 141.457031 87.367188 136.597656 83.082031 136.597656 83.082031 C 136.597656 83.082031 139.644531 91.574219 142.113281 94.375 C 142.195312 94.457031 142.363281 94.621094 142.445312 94.707031 C 142.445312 94.707031 142.363281 94.621094 142.113281 94.375 C 140.21875 92.398438 130.503906 82.175781 129.597656 73.683594 C 129.597656 73.683594 131.738281 78.300781 139.316406 79.949219 C 146.890625 81.679688 151.503906 91.984375 151.503906 91.984375 L 158.089844 85.800781 C 158.089844 85.800781 155.949219 80.113281 146.480469 77.476562 C 137.007812 74.921875 124.902344 64.617188 123.339844 60.742188 C 123.339844 60.742188 123.75 92.480469 147.21875 101.960938 Z M 148.371094 99.734375 " fill-opacity="1" fill-rule="nonzero"/><path fill="#00ffff" d="M 152.574219 105.585938 C 152.574219 105.585938 167.066406 96.273438 181.230469 92.316406 L 179.335938 85.882812 L 164.675781 86.875 L 151.253906 99.074219 Z M 152.574219 105.585938 " fill-opacity="1" fill-rule="nonzero"/><path fill="#6d6e71" d="M 111.398438 262.382812 C 107.941406 246.804688 116.667969 235.757812 116.667969 235.757812 C 116.667969 235.757812 97.976562 229.574219 84.964844 257.519531 C 84.964844 257.519531 89.824219 229.410156 103.660156 227.183594 C 106.539062 226.6875 109.09375 226.523438 111.234375 226.523438 C 111.398438 224.460938 110.824219 221.742188 106.789062 221.496094 C 100.363281 221.082031 91.636719 223.804688 85.378906 231.386719 C 79.117188 238.972656 84.964844 245.15625 79.203125 253.5625 C 73.519531 261.972656 70.882812 267 76.894531 277.140625 C 82.90625 287.28125 93.613281 286.621094 101.1875 283.570312 C 108.765625 280.601562 115.1875 281.59375 115.1875 281.59375 C 115.1875 281.59375 108.929688 283.160156 104.648438 288.1875 C 104.648438 288.1875 109.503906 288.433594 113.789062 288.765625 C 118.070312 289.011719 123.09375 288.023438 125.480469 285.632812 C 125.5625 285.550781 114.859375 277.964844 111.398438 262.382812 Z M 111.398438 262.382812 " fill-opacity="1" fill-rule="nonzero"/><path fill="#ffab15" d="M 228.742188 219.761719 C 235.085938 219.1875 245.046875 220.589844 255.34375 231.964844 C 255.34375 231.964844 269.257812 220.835938 276.753906 259.25 C 276.753906 259.25 282.515625 241.855469 266.210938 225.371094 C 250.976562 209.707031 232.53125 204.59375 228.742188 219.761719 Z M 228.742188 219.761719 " fill-opacity="1" fill-rule="nonzero"/><path fill="#6d6e71" d="M 266.292969 185.550781 C 258.304688 189.097656 251.140625 196.351562 247.683594 204.59375 C 266.128906 208.386719 284.328125 229.574219 284.738281 244.332031 C 284.738281 244.332031 300.550781 234.273438 298.492188 209.542969 C 296.351562 184.890625 275.433594 181.511719 266.292969 185.550781 Z M 266.292969 185.550781 " fill-opacity="1" fill-rule="nonzero"/><path fill="#6d6e71" d="M 230.636719 227.675781 C 222.566406 229.738281 204.367188 237.488281 198.109375 266.257812 C 198.109375 266.257812 194.324219 257.601562 196.382812 249.113281 C 196.382812 249.113281 177.6875 253.644531 176.453125 276.8125 C 175.546875 293.050781 183.945312 295.277344 189.050781 295.195312 C 186.910156 292.390625 184.851562 289.753906 183.78125 288.847656 C 183.78125 288.847656 189.546875 289.671875 196.875 295.277344 C 204.203125 300.882812 215.320312 293.957031 218.285156 287.527344 C 218.285156 287.527344 210.132812 286.867188 207.746094 289.421875 C 207.746094 289.421875 208.402344 284.890625 216.96875 282.335938 C 225.53125 279.777344 243.320312 268.8125 245.046875 262.382812 C 245.046875 262.382812 243.566406 270.792969 236.648438 278.707031 C 236.648438 278.707031 259.625 275.246094 263 260.898438 C 263 260.898438 257.152344 232.625 230.636719 227.675781 Z M 230.636719 227.675781 " fill-opacity="1" fill-rule="nonzero"/><path fill="#ffab15" d="M 201.320312 307.890625 C 196.628906 306.160156 195.476562 304.179688 195.3125 303.851562 C 190.453125 304.757812 182.957031 305.582031 175.792969 304.425781 C 173.734375 304.097656 171.757812 303.601562 169.699219 303.109375 C 162.371094 307.148438 149.359375 313.660156 141.457031 313.25 C 130.09375 312.589844 122.1875 300.554688 122.1875 300.554688 C 122.1875 300.554688 129.269531 319.265625 140.878906 318.773438 C 152.492188 318.359375 172.996094 307.808594 172.996094 307.808594 C 172.996094 307.808594 161.464844 317.863281 139.5625 325.613281 C 139.5625 325.613281 139.5625 333.117188 143.183594 335.671875 C 143.183594 335.671875 170.441406 317.863281 214.582031 309.949219 L 214.992188 303.273438 C 214.992188 303.355469 206.425781 309.867188 201.320312 307.890625 Z M 201.320312 307.890625 " fill-opacity="1" fill-rule="nonzero"/><path fill="#ffab15" d="M 120.703125 218.199219 C 120.703125 218.199219 122.597656 217.289062 125.234375 217.125 C 122.761719 213.332031 118.152344 207.808594 112.140625 208.550781 C 103.164062 209.625 101.847656 214.980469 101.847656 214.980469 L 109.175781 216.464844 C 109.09375 216.464844 114.691406 212.589844 120.703125 218.199219 Z M 120.703125 218.199219 " fill-opacity="1" fill-rule="nonzero"/><path fill="#ffab15" d="M 199.59375 120.097656 C 200.5 121.167969 203.214844 123.972656 206.097656 123.886719 C 206.097656 123.886719 205.933594 136.171875 215.816406 136.171875 C 225.695312 136.171875 228.25 105.011719 212.933594 105.011719 C 202.476562 105.011719 200.085938 114.324219 199.59375 120.097656 Z M 215.734375 110.367188 C 219.027344 110.367188 221.746094 115.398438 221.746094 121.664062 C 221.746094 127.84375 219.027344 132.957031 215.734375 132.957031 C 212.4375 132.957031 209.722656 127.929688 209.722656 121.664062 C 209.804688 115.398438 212.4375 110.367188 215.734375 110.367188 Z M 215.734375 110.367188 " fill-opacity="1" fill-rule="nonzero"/><path fill="#6d6e71" d="M 117.082031 165.273438 C 117.082031 165.273438 115.847656 166.015625 114.199219 166.179688 C 115.1875 167.992188 117.246094 170.628906 121.609375 171.703125 C 121.691406 171.703125 118.152344 170.136719 117.082031 165.273438 Z M 117.082031 165.273438 " fill-opacity="1" fill-rule="nonzero"/><path fill="#00ffff" d="M 220.839844 141.613281 C 221.992188 143.839844 223.226562 147.054688 224.378906 151.339844 C 227.425781 146.640625 235.992188 136.582031 254.929688 132.460938 C 252.953125 128.917969 250.648438 125.289062 248.09375 121.664062 C 246.695312 121.828125 244.636719 122.320312 242 123.476562 C 237.308594 125.535156 229.898438 130.402344 220.839844 141.613281 Z M 220.839844 141.613281 " fill-opacity="1" fill-rule="nonzero"/><path fill="#ffab15" d="M 225.039062 154.0625 C 225.53125 156.453125 226.027344 159.171875 226.355469 162.140625 C 239.121094 148.949219 253.695312 144.910156 260.613281 143.671875 C 259.292969 140.625 257.730469 137.492188 255.917969 134.191406 C 243.566406 136.75 235.90625 141.941406 231.542969 145.980469 C 227.671875 149.609375 225.695312 152.824219 225.039062 154.0625 Z M 225.039062 154.0625 " fill-opacity="1" fill-rule="nonzero"/><path fill="#00ffff" d="M 228.167969 119.1875 C 230.390625 116.140625 233.847656 112.59375 238.871094 110.449219 C 236.894531 108.390625 234.753906 106.410156 232.449219 104.515625 C 230.886719 106.164062 228.332031 108.472656 225.945312 110.203125 C 227.261719 112.839844 228.003906 115.890625 228.167969 119.1875 Z M 228.167969 119.1875 " fill-opacity="1" fill-rule="nonzero"/><path fill="#ffab15" d="M 228.085938 122.980469 C 227.839844 126.773438 227.015625 130.484375 225.285156 133.617188 C 235.003906 123.558594 242.578125 120.671875 246.777344 119.847656 C 244.800781 117.210938 242.578125 114.574219 240.273438 112.015625 C 233.847656 114.492188 229.980469 119.683594 228.085938 122.980469 Z M 228.085938 122.980469 " fill-opacity="1" fill-rule="nonzero"/><path fill="#00ffff" d="M 226.683594 164.695312 C 227.015625 168.40625 227.179688 172.609375 227.097656 177.226562 C 229.648438 174.917969 233.191406 171.867188 237.472656 168.734375 C 247.601562 161.316406 256.988281 156.863281 265.386719 155.460938 C 264.398438 152.578125 263.082031 149.195312 261.519531 145.488281 C 254.847656 146.640625 239.695312 150.515625 226.683594 164.695312 Z M 226.683594 164.695312 " fill-opacity="1" fill-rule="nonzero"/><path fill="#ffab15" d="M 225.039062 199.320312 C 225.039062 199.320312 233.355469 192.3125 239.941406 183.160156 C 246.53125 174.011719 256.988281 166.425781 268.351562 165.4375 C 268.351562 165.4375 267.613281 162.386719 266.046875 157.523438 C 249.824219 160.078125 233.191406 174.421875 227.015625 180.109375 C 226.765625 185.800781 226.191406 192.148438 225.039062 199.320312 Z M 225.039062 199.320312 " fill-opacity="1" fill-rule="nonzero"/><path fill="#ffab15" d="M 224.875 108.472656 C 227.097656 106.90625 229.320312 104.761719 230.886719 103.195312 C 227.507812 100.476562 223.804688 98.003906 219.769531 95.941406 C 220.34375 99.074219 219.6875 101.546875 218.945312 103.03125 C 221.414062 104.351562 223.390625 106.164062 224.875 108.472656 Z M 224.875 108.472656 " fill-opacity="1" fill-rule="nonzero"/><path fill="#00ffff" d="M 217.214844 122.238281 C 217.214844 122.792969 217.195312 123.339844 217.160156 123.878906 C 217.121094 124.421875 217.0625 124.949219 216.988281 125.457031 C 216.914062 125.96875 216.824219 126.453125 216.714844 126.910156 C 216.609375 127.371094 216.484375 127.796875 216.347656 128.183594 C 216.210938 128.574219 216.058594 128.925781 215.898438 129.230469 C 215.734375 129.539062 215.566406 129.796875 215.386719 130.007812 C 215.207031 130.21875 215.019531 130.378906 214.828125 130.488281 C 214.636719 130.59375 214.445312 130.648438 214.25 130.648438 C 214.054688 130.648438 213.863281 130.59375 213.671875 130.488281 C 213.480469 130.378906 213.296875 130.21875 213.117188 130.007812 C 212.9375 129.796875 212.765625 129.539062 212.605469 129.230469 C 212.441406 128.925781 212.292969 128.574219 212.15625 128.183594 C 212.015625 127.796875 211.894531 127.371094 211.785156 126.910156 C 211.675781 126.453125 211.585938 125.96875 211.511719 125.457031 C 211.4375 124.949219 211.382812 124.421875 211.34375 123.878906 C 211.304688 123.339844 211.285156 122.792969 211.285156 122.238281 C 211.285156 121.6875 211.304688 121.140625 211.34375 120.597656 C 211.382812 120.058594 211.4375 119.53125 211.511719 119.023438 C 211.585938 118.511719 211.675781 118.027344 211.785156 117.566406 C 211.894531 117.109375 212.015625 116.683594 212.15625 116.292969 C 212.292969 115.902344 212.441406 115.554688 212.605469 115.246094 C 212.765625 114.941406 212.9375 114.683594 213.117188 114.472656 C 213.296875 114.257812 213.480469 114.101562 213.671875 113.992188 C 213.863281 113.886719 214.054688 113.832031 214.25 113.832031 C 214.445312 113.832031 214.636719 113.886719 214.828125 113.992188 C 215.019531 114.101562 215.207031 114.257812 215.386719 114.472656 C 215.566406 114.683594 215.734375 114.941406 215.898438 115.246094 C 216.058594 115.554688 216.210938 115.902344 216.347656 116.292969 C 216.484375 116.683594 216.609375 117.109375 216.714844 117.566406 C 216.824219 118.027344 216.914062 118.511719 216.988281 119.023438 C 217.0625 119.53125 217.121094 120.058594 217.160156 120.597656 C 217.195312 121.140625 217.214844 121.6875 217.214844 122.238281 Z M 217.214844 122.238281 " fill-opacity="1" fill-rule="nonzero"/><path fill="#00ffff" d="M 210.296875 100.96875 C 212.851562 100.96875 215.15625 101.382812 217.214844 102.207031 C 217.875 100.804688 218.613281 98.167969 217.460938 94.789062 C 215.320312 93.714844 213.015625 92.808594 210.710938 91.984375 C 211.039062 94.871094 210.957031 97.753906 210.132812 101.054688 C 210.214844 100.96875 210.214844 100.96875 210.296875 100.96875 Z M 210.296875 100.96875 " fill-opacity="1" fill-rule="nonzero"/><path fill="#ffab15" d="M 219.6875 201.628906 C 212.191406 206.574219 205.109375 207.808594 199.921875 207.808594 C 197.863281 207.808594 196.050781 207.644531 194.734375 207.398438 C 193.417969 209.707031 191.933594 211.933594 190.289062 214.242188 C 190.289062 214.242188 200.5 212.425781 209.804688 217.621094 C 209.96875 214.570312 210.378906 209.128906 211.121094 207.808594 C 211.121094 207.808594 216.722656 206.410156 219.109375 204.511719 C 219.191406 204.429688 219.355469 203.441406 219.6875 201.628906 Z M 219.6875 201.628906 " fill-opacity="1" fill-rule="nonzero"/><path fill="#6d6e71" d="M 197.699219 242.765625 C 197.699219 242.765625 201.15625 229.574219 212.191406 224.957031 C 209.0625 221.496094 204.203125 217.539062 198.109375 217.539062 C 188.230469 217.539062 181.394531 235.675781 188.3125 245.320312 C 191.109375 244.164062 194.242188 243.175781 197.699219 242.765625 Z M 197.699219 242.765625 " fill-opacity="1" fill-rule="nonzero"/><path fill="#ffab15" d="M 178.183594 251.667969 C 174.640625 247.875 168.878906 240.125 169.867188 230.808594 C 169.867188 230.808594 167.808594 231.386719 164.761719 232.128906 C 163.441406 235.261719 161.960938 240.539062 163.773438 246.886719 L 167.066406 244.742188 C 166.984375 244.660156 173.160156 252.492188 178.183594 251.667969 Z M 178.183594 251.667969 " fill-opacity="1" fill-rule="nonzero"/><path fill="#231f20" d="M 142.445312 94.707031 C 142.363281 94.621094 142.195312 94.457031 142.113281 94.375 C 142.28125 94.539062 142.445312 94.707031 142.445312 94.707031 Z M 142.445312 94.707031 " fill-opacity="1" fill-rule="nonzero"/><path fill="#424449" d="M 113.457031 282.167969 L 126.632812 278.707031 L 113.457031 262.960938 C 113.457031 262.960938 93.199219 275.738281 82.25 271.203125 C 71.296875 266.671875 78.378906 254.71875 78.378906 254.71875 C 78.378906 254.71875 69.566406 263.949219 71.296875 273.761719 C 73.023438 283.570312 82.660156 288.847656 82.660156 288.847656 C 82.660156 288.847656 93.613281 287.117188 103.492188 290 C 113.375 292.886719 128.773438 286.539062 128.773438 286.539062 L 125.5625 282.25 C 119.304688 286.457031 113.457031 282.167969 113.457031 282.167969 Z M 113.457031 282.167969 " fill-opacity="1" fill-rule="nonzero"/><path fill="#424449" d="M 242.660156 269.390625 C 249.25 258.425781 246.035156 247.296875 246.035156 247.296875 C 239.121094 267.90625 213.34375 276.234375 205.027344 277.636719 C 196.710938 278.953125 200.085938 275.246094 190.289062 276.070312 C 180.488281 276.894531 173.40625 262.550781 184.851562 251.667969 C 161.546875 264.363281 178.183594 296.84375 178.183594 296.84375 C 178.183594 296.84375 194.40625 299.070312 203.214844 300.554688 C 212.027344 302.035156 220.589844 292.226562 220.589844 292.226562 C 215.320312 287.445312 207.746094 289.339844 207.746094 289.339844 C 214.25 281.675781 221.660156 290.660156 225.039062 284.890625 C 228.414062 279.203125 235.167969 283.734375 245.046875 280.769531 C 254.929688 277.800781 266.953125 268.980469 268.351562 261.890625 C 269.753906 254.800781 261.601562 245.898438 261.601562 245.898438 C 259.210938 258.179688 242.660156 269.390625 242.660156 269.390625 Z M 242.660156 269.390625 " fill-opacity="1" fill-rule="nonzero"/><path fill="#424449" d="M 195.226562 217.539062 C 178.675781 222.238281 183.535156 242.433594 186.335938 247.792969 C 189.136719 253.152344 200.003906 243.257812 200.003906 243.257812 L 206.097656 232.871094 C 193.085938 237.324219 183.945312 225.699219 195.226562 217.539062 Z M 195.226562 217.539062 " fill-opacity="1" fill-rule="nonzero"/><path fill="#424449" d="M 131.410156 196.847656 C 138.492188 195.691406 139.972656 199.320312 139.972656 199.320312 C 130.832031 199.152344 125.152344 208.46875 125.152344 208.46875 L 129.925781 218.199219 L 139.5625 213.332031 L 137.503906 204.183594 L 143.433594 201.792969 L 149.855469 195.195312 C 138.65625 190.664062 131.410156 196.847656 131.410156 196.847656 Z M 131.410156 196.847656 " fill-opacity="1" fill-rule="nonzero"/><path fill="#424449" d="M 279.964844 187.941406 C 294.128906 208.964844 275.433594 226.851562 275.433594 226.851562 L 280.789062 245.402344 C 280.789062 245.402344 294.949219 237.488281 296.019531 213.910156 C 297.09375 190.332031 279.964844 187.941406 279.964844 187.941406 Z M 279.964844 187.941406 " fill-opacity="1" fill-rule="nonzero"/><path fill="#424449" d="M 184.851562 165.4375 L 186.5 170.628906 C 191.195312 168.40625 195.886719 168.324219 195.804688 173.847656 C 195.722656 179.367188 190.289062 189.921875 190.289062 189.921875 L 199.59375 185.800781 L 204.945312 157.523438 C 204.945312 157.523438 196.957031 162.800781 188.804688 162.632812 C 190.207031 161.808594 191.933594 161.148438 193.746094 160.984375 C 198.441406 160.574219 201.898438 153.730469 204.203125 142.023438 C 206.511719 130.402344 201.40625 127.101562 193.5 124.796875 C 185.59375 122.488281 182.875 134.191406 182.875 134.191406 C 184.027344 129.492188 193.910156 128.421875 195.722656 134.359375 C 197.535156 140.292969 190.207031 141.28125 190.207031 141.28125 C 194.980469 152.246094 185.429688 162.304688 185.429688 162.304688 C 191.359375 154.308594 186.582031 145.980469 186.582031 145.980469 C 189.957031 158.757812 175.21875 160.820312 159.820312 164.035156 C 148.371094 166.425781 144.007812 168.238281 142.527344 168.980469 C 144.832031 166.015625 146.066406 162.800781 146.066406 162.800781 C 146.066406 162.800781 160.230469 151.753906 167.230469 145.652344 C 174.230469 139.550781 180.652344 142.023438 180.652344 142.023438 C 180.652344 142.023438 173.324219 138.480469 165.5 141.28125 C 157.679688 144.167969 143.351562 164.117188 133.46875 167.332031 C 123.585938 170.546875 124.492188 162.058594 129.761719 157.523438 C 121.941406 159.335938 121.363281 162.632812 120.292969 165.191406 C 119.222656 167.746094 113.457031 168.652344 113.457031 168.652344 L 123.667969 173.929688 C 123.667969 173.929688 122.925781 171.949219 122.269531 170.21875 C 123.75 172.445312 126.878906 173.105469 133.46875 173.847656 C 131.410156 174.175781 129.925781 174.09375 129.925781 174.09375 L 129.925781 177.0625 C 129.925781 183.492188 145.984375 182.996094 145.984375 182.996094 L 153.066406 174.09375 L 165.914062 165.519531 L 179.5 162.714844 Z M 184.851562 165.4375 " fill-opacity="1" fill-rule="nonzero"/><path fill="#424449" d="M 197.863281 97.097656 C 193.003906 82.503906 188.394531 76.980469 188.394531 76.980469 C 188.394531 76.980469 185.265625 82.667969 190.453125 98.746094 C 190.121094 97.507812 189.957031 95.363281 192.183594 94.707031 C 195.3125 93.796875 194.570312 111.359375 188.394531 120.507812 C 188.394531 120.507812 202.722656 111.6875 197.863281 97.097656 Z M 197.863281 97.097656 " fill-opacity="1" fill-rule="nonzero"/><path fill="#424449" d="M 190.453125 98.746094 C 190.617188 99.238281 190.699219 99.652344 190.699219 99.652344 C 190.617188 99.320312 190.535156 99.074219 190.453125 98.746094 Z M 190.453125 98.746094 " fill-opacity="1" fill-rule="nonzero"/><path fill="#424449" d="M 131.820312 80.691406 C 134.375 90.582031 149.609375 102.042969 149.609375 102.042969 C 148.949219 84.234375 131.820312 80.691406 131.820312 80.691406 Z M 131.820312 80.691406 " fill-opacity="1" fill-rule="nonzero"/><path fill="#424449" d="M 148.042969 80.691406 C 155.867188 86.296875 154.136719 91.984375 154.136719 91.984375 L 162.453125 84.484375 L 152.40625 76.402344 L 123.257812 60.824219 C 126.796875 73.355469 140.21875 75.003906 148.042969 80.691406 Z M 148.042969 80.691406 " fill-opacity="1" fill-rule="nonzero"/><path fill="#424449" d="M 198.851562 110.367188 C 198.851562 110.367188 212.355469 101.628906 208.402344 91.984375 C 204.453125 82.339844 189.710938 49.53125 189.710938 49.53125 L 187.40625 62.390625 C 187.40625 62.390625 190.945312 74.507812 194.652344 81.433594 C 198.359375 88.359375 206.511719 99.074219 198.851562 110.367188 Z M 198.851562 110.367188 " fill-opacity="1" fill-rule="nonzero"/><path fill="#424449" d="M 176.125 128.011719 C 180.898438 122.652344 178.921875 117.375 180.816406 114.574219 C 178.757812 115.726562 177.6875 121.167969 175.136719 124.382812 C 172.582031 127.597656 165.75 131.886719 159.984375 132.875 C 159.984375 132.875 171.347656 133.367188 176.125 128.011719 Z M 176.125 128.011719 " fill-opacity="1" fill-rule="nonzero"/><path fill="#0078e5" d="M 155.785156 196.761719 C 156.523438 197.09375 157.347656 197.421875 158.335938 197.503906 C 159.902344 194.621094 162.042969 190.664062 164.019531 186.375 C 162.949219 186.375 161.878906 186.375 160.890625 186.375 C 159.65625 189.589844 158.007812 193.136719 155.785156 196.761719 Z M 155.785156 196.761719 " fill-opacity="1" fill-rule="nonzero"/><path fill="#0078e5" d="M 164.511719 167.25 C 164.511719 167.25 164.761719 169.722656 164.183594 173.847656 C 165.914062 173.679688 167.722656 173.019531 169.453125 172.773438 C 170.277344 169.890625 170.769531 167.332031 170.605469 165.273438 Z M 164.511719 167.25 " fill-opacity="1" fill-rule="nonzero"/><path fill="#0078e5" d="M 176.125 184.234375 C 176.125 184.234375 182.792969 180.769531 182.957031 180.441406 C 183.042969 180.195312 184.027344 173.019531 184.769531 167.746094 C 182.710938 168.570312 180.40625 168.652344 178.265625 169.3125 C 178.675781 173.019531 178.511719 178.378906 176.125 184.234375 Z M 176.125 184.234375 " fill-opacity="1" fill-rule="nonzero"/><path fill="#0078e5" d="M 213.097656 149.113281 C 214.828125 147.054688 215.566406 144.664062 216.886719 142.273438 C 216.554688 141.53125 216.144531 140.789062 215.734375 140.046875 L 209.722656 140.046875 C 209.804688 140.128906 211.449219 143.34375 213.097656 149.113281 Z M 213.097656 149.113281 " fill-opacity="1" fill-rule="nonzero"/><path fill="#0078e5" d="M 215.566406 161.066406 C 216.144531 165.4375 216.390625 170.464844 216.144531 175.90625 C 218.863281 174.257812 221.25 172.195312 223.144531 169.558594 C 222.816406 164.199219 222.15625 158.757812 220.839844 153.484375 C 218.945312 155.875 217.460938 158.675781 215.566406 161.066406 Z M 215.566406 161.066406 " fill-opacity="1" fill-rule="nonzero"/><path fill="#0078e5" d="M 209.472656 205.007812 C 213.839844 204.101562 217.710938 202.121094 221.578125 199.730469 C 222.074219 196.351562 222.734375 191.15625 223.144531 185.140625 C 220.507812 187.613281 217.460938 189.671875 214.003906 191.074219 C 212.933594 195.609375 211.535156 200.226562 209.472656 205.007812 Z M 209.472656 205.007812 " fill-opacity="1" fill-rule="nonzero"/><path fill="#0078e5" d="M 218.53125 100.886719 C 212.4375 97.839844 208.402344 97.097656 208.402344 97.097656 L 207.003906 102.207031 C 211.449219 101.710938 214.992188 102.867188 217.710938 104.679688 C 218.203125 103.445312 218.449219 102.125 218.53125 100.886719 Z M 218.53125 100.886719 " fill-opacity="1" fill-rule="nonzero"/><path fill="#0078e5" d="M 228.414062 106.90625 C 227.179688 108.71875 225.203125 109.710938 223.472656 111.027344 C 225.945312 115.148438 226.765625 119.023438 226.765625 119.023438 C 227.589844 119.355469 228.414062 119.765625 229.238281 120.261719 C 230.71875 117.128906 232.53125 114.40625 235.824219 113.089844 C 233.191406 110.699219 230.71875 108.636719 228.414062 106.90625 Z M 228.414062 106.90625 " fill-opacity="1" fill-rule="nonzero"/><path fill="#0078e5" d="M 243.484375 121.664062 C 240.601562 122.816406 237.800781 124.054688 235.414062 126.03125 C 238.050781 129.246094 240.4375 133.121094 242.578125 137.40625 C 245.625 136.089844 248.753906 135.101562 252.046875 134.359375 C 249.332031 129.492188 246.449219 125.289062 243.484375 121.664062 Z M 243.484375 121.664062 " fill-opacity="1" fill-rule="nonzero"/><path fill="#0078e5" d="M 257.566406 145.40625 C 254.1875 146.558594 250.894531 147.464844 247.519531 148.539062 C 249.332031 153.070312 250.8125 157.523438 251.964844 161.234375 C 254.929688 159.253906 258.472656 158.183594 262.09375 157.359375 C 260.695312 153.070312 259.210938 149.113281 257.566406 145.40625 Z M 257.566406 145.40625 " fill-opacity="1" fill-rule="nonzero"/><path fill="#0078e5" d="M 181.804688 92.644531 L 175.054688 90.171875 L 155.539062 98.167969 L 152.574219 105.585938 Z M 181.804688 92.644531 " fill-opacity="1" fill-rule="nonzero"/><path fill="#0078e5" d="M 151.089844 98.992188 L 155.539062 98.167969 L 164.59375 86.792969 Z M 151.089844 98.992188 " fill-opacity="1" fill-rule="nonzero"/><path fill="#0078e5" d="M 179.828125 85.882812 L 164.59375 86.792969 L 175.054688 90.171875 Z M 179.828125 85.882812 " fill-opacity="1" fill-rule="nonzero"/><path fill="#aaaeba" d="M 142.195312 124.136719 C 139.398438 131.144531 135.609375 132.625 135.609375 132.625 C 137.007812 131.472656 139.148438 124.546875 137.996094 123.394531 C 136.84375 122.238281 138.078125 120.839844 140.304688 120.34375 C 142.527344 119.765625 143.515625 115.644531 143.515625 115.644531 L 142.855469 110.367188 L 137.832031 115.644531 L 132.726562 117.625 L 129.597656 121.664062 L 133.632812 128.917969 C 133.632812 128.917969 130.914062 137.324219 130.175781 137.40625 C 129.433594 137.492188 111.894531 156.121094 111.894531 156.121094 L 118.070312 156.945312 C 142.527344 141.363281 142.195312 124.136719 142.195312 124.136719 Z M 142.195312 124.136719 " fill-opacity="1" fill-rule="nonzero"/><path fill="#aaaeba" d="M 156.277344 124.382812 L 180.898438 112.101562 C 165.582031 111.851562 151.996094 122.238281 151.996094 122.238281 C 151.75 130.730469 144.007812 141.941406 144.007812 141.941406 C 150.019531 136.914062 156.277344 124.382812 156.277344 124.382812 Z M 156.277344 124.382812 " fill-opacity="1" fill-rule="nonzero"/><path fill="#aaaeba" d="M 180.816406 141.941406 C 175.464844 139.964844 170.523438 143.425781 170.523438 143.425781 L 170.441406 145.570312 L 178.183594 147.878906 C 172.089844 148.453125 170.441406 151.753906 170.441406 151.753906 C 178.675781 149.363281 181.476562 152.328125 179.335938 154.886719 C 177.195312 157.441406 170.6875 157.027344 158.996094 159.5 C 147.300781 161.976562 146.726562 166.015625 146.726562 166.015625 C 155.867188 162.386719 161.632812 163.625 175.792969 159.5 C 189.875 155.378906 186.171875 143.921875 180.816406 141.941406 Z M 180.816406 141.941406 " fill-opacity="1" fill-rule="nonzero"/><path fill="#aaaeba" d="M 147.136719 101.960938 C 127.292969 88.359375 126.796875 67.5 126.796875 67.5 C 124.574219 65.273438 123.257812 60.742188 123.257812 60.742188 C 123.257812 60.742188 122.597656 72.117188 126.140625 86.214844 C 129.679688 100.476562 147.136719 101.960938 147.136719 101.960938 Z M 147.136719 101.960938 " fill-opacity="1" fill-rule="nonzero"/><path fill="#aaaeba" d="M 187.40625 62.390625 L 189.710938 49.53125 C 172.417969 74.835938 190.121094 107.234375 190.121094 107.234375 C 179.582031 73.847656 187.40625 62.390625 187.40625 62.390625 Z M 187.40625 62.390625 " fill-opacity="1" fill-rule="nonzero"/><path fill="#aaaeba" d="M 178.675781 136.5 C 177.277344 132.625 161.136719 131.058594 149.773438 141.28125 C 149.773438 141.28125 163.113281 132.050781 178.675781 136.5 Z M 178.675781 136.5 " fill-opacity="1" fill-rule="nonzero"/><path fill="#aaaeba" d="M 115.679688 205.75 L 121.691406 207.480469 C 127.703125 188.191406 150.84375 191.898438 150.84375 191.898438 C 134.125 175.328125 115.679688 205.75 115.679688 205.75 Z M 115.679688 205.75 " fill-opacity="1" fill-rule="nonzero"/><path fill="#aaaeba" d="M 86.199219 234.933594 C 88.589844 224.628906 108.515625 219.515625 108.515625 219.515625 C 93.199219 217.371094 80.023438 229.574219 80.023438 229.574219 L 77.058594 243.753906 C 77.058594 243.753906 73.191406 247.710938 69.730469 264.117188 C 66.273438 280.519531 87.765625 285.550781 87.765625 285.550781 C 73.765625 281.675781 80.929688 264.117188 80.929688 264.117188 C 86.695312 268.980469 97.648438 257.4375 97.648438 257.4375 C 97.648438 257.4375 94.683594 259.332031 86.285156 260.324219 C 77.800781 261.3125 83.8125 245.238281 86.199219 234.933594 Z M 86.199219 234.933594 " fill-opacity="1" fill-rule="nonzero"/><path fill="#aaaeba" d="M 84.964844 257.519531 C 84.964844 257.519531 94.847656 239.382812 116.585938 241.199219 L 120.867188 234.027344 C 120.785156 234.027344 101.515625 223.0625 84.964844 257.519531 Z M 84.964844 257.519531 " fill-opacity="1" fill-rule="nonzero"/><path fill="#aaaeba" d="M 125.152344 218.855469 C 116.503906 221.414062 111.234375 228.585938 111.234375 228.585938 L 116.503906 229.492188 C 116.503906 229.492188 122.1875 219.679688 141.785156 231.800781 C 141.867188 231.882812 133.796875 216.300781 125.152344 218.855469 Z M 125.152344 218.855469 " fill-opacity="1" fill-rule="nonzero"/><path fill="#aaaeba" d="M 186.089844 230.808594 C 186.089844 230.808594 191.769531 219.597656 198.851562 221.578125 C 206.015625 223.554688 209.472656 230.808594 209.472656 230.808594 L 215.566406 225.285156 C 215.566406 225.285156 207.992188 214.074219 198.851562 215.722656 C 189.710938 217.289062 184.605469 223.96875 186.089844 230.808594 Z M 186.089844 230.808594 " fill-opacity="1" fill-rule="nonzero"/><path fill="#aaaeba" d="M 284.90625 184.066406 C 257.234375 176.976562 246.035156 204.183594 246.035156 204.183594 L 253.285156 208.550781 C 253.285156 208.550781 258.140625 190.5 275.515625 187.859375 C 292.890625 185.304688 299.066406 208.222656 298.65625 227.183594 C 298.574219 227.265625 312.574219 191.238281 284.90625 184.066406 Z M 284.90625 184.066406 " fill-opacity="1" fill-rule="nonzero"/><path fill="#aaaeba" d="M 230.308594 225.203125 C 219.109375 226.9375 196.050781 244.246094 198.851562 265.515625 C 198.851562 265.515625 211.121094 235.261719 243.484375 229.492188 C 243.566406 229.574219 241.507812 223.472656 230.308594 225.203125 Z M 230.308594 225.203125 " fill-opacity="1" fill-rule="nonzero"/><path fill="#aaaeba" d="M 176.371094 270.957031 C 177.769531 263.042969 197.699219 251.667969 197.699219 251.667969 L 200.746094 245.566406 C 174.230469 251.171875 176.371094 270.957031 176.371094 270.957031 Z M 176.371094 270.957031 " fill-opacity="1" fill-rule="nonzero"/><path fill="#aaaeba" d="M 126.550781 300.71875 L 136.101562 304.839844 C 133.386719 296.84375 137.089844 290.578125 137.089844 290.578125 C 120.785156 295.113281 126.550781 300.71875 126.550781 300.71875 Z M 126.550781 300.71875 " fill-opacity="1" fill-rule="nonzero"/><path fill="#aaaeba" d="M 283.75 176.402344 C 283.75 176.402344 281.609375 171.539062 274.859375 171.539062 C 268.105469 171.539062 260.28125 171.703125 248.175781 182.832031 C 248.175781 182.832031 251.308594 181.101562 252.296875 182.007812 C 253.285156 182.996094 251.71875 185.386719 248.175781 187.777344 C 244.636719 190.25 235.332031 199.730469 234.261719 206.078125 L 241.425781 207.976562 C 241.425781 208.222656 252.542969 182.417969 283.75 176.402344 Z M 283.75 176.402344 " fill-opacity="1" fill-rule="nonzero"/><path fill="#aaaeba" d="M 188.394531 195.855469 C 188.394531 195.855469 183.535156 198.90625 178.921875 200.0625 C 174.3125 201.214844 176.699219 187.449219 176.699219 187.449219 C 169.617188 190.414062 173.734375 214.816406 173.734375 214.816406 L 181.804688 209.457031 C 182.382812 201.875 188.394531 195.855469 188.394531 195.855469 Z M 188.394531 195.855469 " fill-opacity="1" fill-rule="nonzero"/><path fill="#aaaeba" d="M 142.527344 206.242188 C 142.527344 206.242188 139.5625 210.199219 149.445312 211.601562 L 154.21875 207.234375 C 154.21875 207.152344 145.820312 208.550781 142.527344 206.242188 Z M 142.527344 206.242188 " fill-opacity="1" fill-rule="nonzero"/><path fill="#ffffff" d="M 161.21875 167.25 C 161.21875 167.25 165.335938 180.277344 149.113281 201.628906 L 147.21875 201.132812 Z M 161.21875 167.25 " fill-opacity="1" fill-rule="nonzero"/><path fill="#ffffff" d="M 173.40625 163.953125 C 173.40625 163.953125 171.429688 191.238281 156.277344 213.332031 L 145.984375 218.527344 C 145.984375 218.527344 170.769531 187.117188 170.6875 165.191406 Z M 173.40625 163.953125 " fill-opacity="1" fill-rule="nonzero"/><path fill="#ffffff" d="M 170.441406 207.480469 L 144.007812 231.386719 L 142.527344 226.851562 L 167.972656 205.171875 Z M 170.441406 207.480469 " fill-opacity="1" fill-rule="nonzero"/><path fill="#ffffff" d="M 207.746094 137.40625 C 207.746094 137.40625 218.613281 177.308594 192.183594 215.640625 L 185.59375 215.476562 L 205.027344 168.40625 Z M 207.746094 137.40625 " fill-opacity="1" fill-rule="nonzero"/><path fill="#ffffff" d="M 113.789062 208.46875 C 110.328125 208.140625 111.8125 210.285156 114.773438 211.191406 C 117.738281 212.097656 122.351562 214.242188 124.738281 219.515625 L 128.773438 219.269531 C 128.773438 219.269531 123.914062 209.128906 113.789062 208.46875 Z M 113.789062 208.46875 " fill-opacity="1" fill-rule="nonzero"/><path fill="#ffffff" d="M 121.445312 238.808594 C 124.574219 235.097656 127.128906 233.941406 129.515625 234.765625 C 129.515625 234.765625 121.035156 246.722656 127.785156 260.324219 L 129.925781 240.785156 C 129.925781 240.785156 134.949219 236.910156 138.65625 239.136719 C 138.65625 239.136719 133.140625 252.492188 140.550781 261.808594 C 140.550781 261.808594 135.445312 248.535156 141.125 239.632812 C 141.125 239.632812 144.914062 236.992188 146.808594 240.125 C 146.808594 240.125 146.808594 255.789062 153.230469 257.4375 C 153.230469 257.4375 148.125 246.722656 149.773438 239.464844 C 149.773438 239.464844 154.136719 234.683594 157.429688 235.921875 C 157.429688 235.921875 158.667969 252.738281 166.738281 253.726562 C 166.738281 253.726562 160.558594 244.824219 161.300781 237.734375 C 161.300781 237.734375 163.855469 233.449219 167.394531 234.4375 C 167.394531 234.4375 169.949219 246.390625 177.441406 248.039062 C 177.441406 248.039062 170.605469 231.386719 172.5 224.628906 C 174.394531 217.867188 180.984375 222.402344 180.898438 223.722656 C 180.816406 225.039062 179.910156 230.894531 182.300781 233.449219 C 182.300781 233.449219 185.347656 220.421875 187.898438 218.28125 C 187.898438 218.28125 186.5 215.230469 179.746094 217.867188 C 173.078125 220.589844 165.171875 228.585938 165.171875 228.585938 L 137.089844 234.027344 L 129.433594 230.808594 L 122.679688 232.128906 Z M 121.445312 238.808594 " fill-opacity="1" fill-rule="nonzero"/><path fill="#ffffff" d="M 228.742188 219.761719 C 228.742188 219.761719 233.601562 210.695312 241.917969 212.757812 C 250.238281 214.816406 242.90625 223.804688 242.90625 223.804688 L 246.035156 225.285156 C 246.035156 225.285156 249.082031 218.363281 257.648438 220.671875 C 266.210938 222.980469 277.410156 243.175781 279.222656 248.453125 C 279.222656 248.453125 278.976562 226.359375 260.199219 215.722656 C 241.425781 205.007812 224.378906 209.871094 228.742188 219.761719 Z M 228.742188 219.761719 " fill-opacity="1" fill-rule="nonzero"/><path fill="#ffffff" d="M 220.097656 137.40625 C 220.097656 137.40625 236.402344 159.417969 226.601562 201.628906 L 220.757812 204.265625 C 220.757812 204.265625 229.980469 163.625 215.734375 140.128906 Z M 220.097656 137.40625 " fill-opacity="1" fill-rule="nonzero"/><path fill="#e26600" d="M 139.5625 286.621094 L 147.21875 285.21875 L 146.230469 286.621094 L 160.890625 294.535156 C 156.195312 291.730469 154.796875 283.488281 154.796875 283.488281 L 150.101562 282.746094 L 151.585938 280.355469 L 157.347656 273.59375 C 157.265625 281.59375 173.324219 300.46875 173.324219 300.46875 C 165.5 291.566406 168.464844 268.730469 168.464844 268.730469 L 166.40625 265.433594 C 166.40625 265.433594 165.914062 265.433594 165.171875 265.597656 L 180.078125 251.585938 C 172.914062 252.820312 168.300781 241.113281 168.300781 241.113281 L 165.007812 242.765625 C 162.867188 242.351562 162.289062 233.941406 162.289062 233.941406 C 162.289062 233.941406 160.476562 244.742188 161.960938 248.78125 C 163.441406 252.820312 171.101562 259.003906 171.101562 259.003906 C 162.289062 259.25 157.761719 245.484375 157.761719 245.484375 L 153.644531 246.96875 C 151.089844 244.496094 151.585938 237.074219 151.585938 237.074219 C 148.371094 242.679688 151.585938 254.964844 151.585938 254.964844 L 159.40625 266.257812 C 150.761719 264.03125 146.148438 249.195312 146.148438 249.195312 L 142.855469 250.925781 C 140.632812 248.535156 141.703125 238.722656 141.703125 238.722656 C 134.292969 247.050781 141.703125 262.300781 141.703125 262.300781 L 150.679688 274.832031 C 134.292969 268.074219 135.445312 253.398438 135.445312 253.398438 L 132.316406 254.46875 C 130.832031 244.496094 135.9375 238.230469 135.9375 238.230469 L 133.796875 238.558594 C 130.257812 241.28125 126.46875 251.007812 128.773438 261.230469 C 131.082031 271.453125 148.867188 282.417969 148.867188 282.417969 C 124.738281 282.910156 124.082031 255.625 124.082031 255.625 C 117.820312 256.695312 116.917969 244.660156 121.609375 237.984375 L 115.433594 243.917969 L 113.210938 259.664062 C 113.210938 259.664062 122.515625 273.84375 122.761719 274.089844 C 123.257812 274.585938 139.5625 286.621094 139.5625 286.621094 Z M 139.5625 286.621094 " fill-opacity="1" fill-rule="nonzero"/><path fill="#e26600" d="M 185.511719 246.886719 C 178.265625 244.824219 179.746094 228.335938 179.746094 228.335938 C 175.628906 228.75 173.652344 226.441406 175.382812 223.144531 C 169.207031 224.460938 171.59375 230.234375 174.722656 239.714844 C 178.019531 249.195312 185.511719 246.886719 185.511719 246.886719 Z M 185.511719 246.886719 " fill-opacity="1" fill-rule="nonzero"/><path fill="#e26600" d="M 116.503906 221.414062 C 116.503906 221.742188 121.035156 218.527344 121.035156 218.527344 C 111.726562 206.242188 104.070312 215.640625 104.070312 215.640625 C 104.070312 215.640625 116.585938 221.164062 116.503906 221.414062 Z M 116.503906 221.414062 " fill-opacity="1" fill-rule="nonzero"/><path fill="#e26600" d="M 145.902344 218.527344 L 147.878906 212.675781 L 144.089844 213.582031 L 137.171875 219.515625 L 139.5625 225.039062 Z M 145.902344 218.527344 " fill-opacity="1" fill-rule="nonzero"/><path fill="#e26600" d="M 155.785156 196.761719 C 154.796875 198.414062 153.644531 200.144531 152.40625 201.792969 L 155.621094 202.371094 C 155.621094 202.371094 156.773438 200.472656 158.335938 197.503906 C 157.429688 197.421875 156.523438 197.09375 155.785156 196.761719 Z M 155.785156 196.761719 " fill-opacity="1" fill-rule="nonzero"/><path fill="#e26600" d="M 169.453125 172.773438 C 167.722656 173.105469 165.914062 173.679688 164.183594 173.847656 C 163.773438 177.144531 162.785156 181.429688 160.890625 186.375 C 161.878906 186.375 163.03125 186.375 164.019531 186.375 C 166.242188 181.84375 168.21875 176.976562 169.453125 172.773438 Z M 169.453125 172.773438 " fill-opacity="1" fill-rule="nonzero"/><path fill="#e26600" d="M 177.195312 163.953125 C 177.195312 163.953125 177.9375 165.933594 178.265625 169.230469 C 180.40625 168.570312 182.710938 168.488281 184.769531 167.664062 C 185.183594 164.53125 185.511719 162.058594 185.511719 162.058594 Z M 177.195312 163.953125 " fill-opacity="1" fill-rule="nonzero"/><path fill="#e26600" d="M 146.808594 230.808594 L 156.359375 231.386719 L 157.84375 231.46875 L 164.101562 223.636719 L 172.417969 213.332031 L 168.796875 210.859375 L 160.972656 217.949219 L 152.324219 225.863281 Z M 146.808594 230.808594 " fill-opacity="1" fill-rule="nonzero"/><path fill="#e26600" d="M 160.890625 294.617188 C 161.054688 294.699219 161.21875 294.78125 161.464844 294.945312 Z M 160.890625 294.617188 " fill-opacity="1" fill-rule="nonzero"/><path fill="#e26600" d="M 194.324219 310.941406 C 171.019531 316.050781 147.46875 329.078125 147.46875 329.078125 C 147.300781 324.953125 150.925781 323.800781 150.925781 323.800781 C 173.488281 314.484375 185.921875 302.035156 185.921875 302.035156 L 177.359375 303.355469 C 177.359375 303.355469 164.761719 310.117188 153.972656 314.730469 C 143.101562 319.347656 139.808594 314.730469 139.808594 314.730469 C 130.996094 314.898438 121.773438 300.140625 121.773438 300.140625 C 121.773438 300.140625 120.867188 317.289062 120.867188 318.277344 C 120.867188 319.265625 144.007812 338.472656 144.007812 338.472656 L 209.472656 314.15625 L 211.863281 299.152344 L 197.453125 300.882812 C 199.015625 308.46875 194.324219 310.941406 194.324219 310.941406 Z M 194.324219 310.941406 " fill-opacity="1" fill-rule="nonzero"/><path fill="#e26600" d="M 264.316406 227.675781 C 257.566406 221.164062 249.164062 228.996094 249.164062 228.996094 L 250.976562 234.851562 L 274.445312 262.300781 C 282.351562 253.152344 271.070312 234.191406 264.316406 227.675781 Z M 264.316406 227.675781 " fill-opacity="1" fill-rule="nonzero"/><path fill="#e26600" d="M 230.308594 221.742188 L 237.144531 224.792969 C 236.320312 218.113281 240.109375 213.828125 240.109375 213.828125 C 232.449219 213.582031 230.308594 221.742188 230.308594 221.742188 Z M 230.308594 221.742188 " fill-opacity="1" fill-rule="nonzero"/><path fill="#e26600" d="M 220.839844 153.484375 C 219.851562 149.609375 218.613281 145.816406 216.886719 142.355469 C 215.566406 144.746094 214.828125 147.054688 213.097656 149.195312 C 214.003906 152.410156 214.992188 156.535156 215.566406 161.234375 C 217.460938 158.675781 218.945312 155.875 220.839844 153.484375 Z M 220.839844 153.484375 " fill-opacity="1" fill-rule="nonzero"/><path fill="#e26600" d="M 216.144531 175.90625 C 215.898438 180.6875 215.238281 185.714844 214.003906 191.074219 C 217.460938 189.671875 220.425781 187.53125 223.144531 185.140625 C 223.390625 180.359375 223.472656 175.082031 223.144531 169.558594 C 221.25 172.195312 218.863281 174.257812 216.144531 175.90625 Z M 216.144531 175.90625 " fill-opacity="1" fill-rule="nonzero"/><path fill="#e26600" d="M 204.285156 215.640625 L 211.285156 219.515625 L 212.191406 210.695312 L 220.839844 204.183594 C 220.839844 204.183594 221.167969 202.535156 221.578125 199.730469 C 217.710938 202.121094 213.839844 204.101562 209.472656 205.007812 C 208.074219 208.550781 206.34375 212.097656 204.285156 215.640625 Z M 204.285156 215.640625 " fill-opacity="1" fill-rule="nonzero"/><path fill="#e26600" d="M 217.710938 104.761719 C 220.179688 106.492188 222.074219 108.800781 223.390625 111.027344 C 225.121094 109.710938 227.097656 108.71875 228.332031 106.90625 C 224.707031 104.269531 221.414062 102.289062 218.53125 100.886719 C 218.449219 102.125 218.203125 103.445312 217.710938 104.761719 Z M 217.710938 104.761719 " fill-opacity="1" fill-rule="nonzero"/><path fill="#e26600" d="M 235.414062 126.03125 C 237.800781 123.972656 240.601562 122.816406 243.484375 121.664062 C 240.847656 118.363281 238.296875 115.5625 235.660156 113.089844 C 232.367188 114.40625 230.554688 117.128906 229.074219 120.261719 C 231.378906 121.664062 233.4375 123.640625 235.414062 126.03125 Z M 235.414062 126.03125 " fill-opacity="1" fill-rule="nonzero"/><path fill="#e26600" d="M 247.601562 148.539062 C 250.976562 147.464844 254.269531 146.558594 257.648438 145.40625 C 255.917969 141.363281 254.023438 137.738281 252.128906 134.359375 C 248.917969 135.101562 245.707031 136.089844 242.660156 137.40625 C 244.472656 141.035156 246.117188 144.828125 247.601562 148.539062 Z M 247.601562 148.539062 " fill-opacity="1" fill-rule="nonzero"/><path fill="#e26600" d="M 254.929688 171.703125 L 230.886719 196.847656 L 260.613281 168.898438 L 265.304688 168.40625 C 264.316406 164.53125 263.246094 160.820312 262.09375 157.277344 C 258.472656 158.101562 254.929688 159.171875 251.964844 161.148438 C 253.941406 167.414062 254.929688 171.703125 254.929688 171.703125 Z M 254.929688 171.703125 " fill-opacity="1" fill-rule="nonzero"/><path fill="#e26600" d="M 171.183594 108.472656 L 184.605469 100.886719 L 183.453125 96.023438 L 169.617188 102.289062 C 169.617188 102.289062 166.738281 107.234375 163.03125 108.882812 C 159.324219 110.535156 157.84375 108.554688 157.84375 108.554688 C 157.84375 108.554688 154.878906 110.699219 151.585938 111.441406 C 148.289062 112.183594 148.621094 102.289062 148.621094 102.289062 C 148.621094 102.289062 145.410156 109.710938 145.242188 110.039062 C 145.078125 110.367188 145.984375 120.261719 145.984375 120.261719 Z M 171.183594 108.472656 " fill-opacity="1" fill-rule="nonzero"/><path fill="#e26600" d="M 222.484375 118.53125 C 223.0625 121.910156 222.734375 126.609375 220.179688 131.472656 C 217.625 136.335938 212.273438 134.109375 209.226562 129.492188 C 206.179688 124.878906 207.992188 116.796875 207.992188 116.796875 C 203.792969 117.292969 199.757812 113.5 204.367188 108.144531 L 201.898438 108.144531 L 195.640625 119.023438 L 199.015625 127.269531 C 199.015625 127.269531 201.570312 138.480469 214.746094 138.972656 C 227.921875 139.46875 224.707031 117.625 224.707031 117.625 Z M 222.484375 118.53125 " fill-opacity="1" fill-rule="nonzero"/><path fill="#ffffff" d="M 148.371094 103.277344 C 148.371094 103.277344 149.277344 109.710938 151.171875 110.285156 L 159.570312 105.503906 C 159.570312 105.503906 161.136719 108.226562 163.195312 106.742188 C 165.253906 105.257812 167.808594 101.464844 167.808594 101.464844 C 167.808594 101.464844 182.464844 94.871094 183.78125 94.457031 L 179.253906 94.292969 L 152.574219 107.152344 L 148.785156 101.300781 Z M 148.371094 103.277344 " fill-opacity="1" fill-rule="nonzero"/><path fill="#ffffff" d="M 208.652344 105.667969 C 208.652344 105.667969 206.34375 106.328125 207.746094 109.050781 C 208.402344 110.367188 210.957031 110.367188 213.261719 109.875 C 213.261719 109.875 208.402344 111.273438 209.144531 123.144531 C 209.558594 129.164062 213.261719 131.886719 213.261719 131.886719 C 213.261719 131.886719 209.886719 126.363281 210.546875 120.261719 C 211.203125 114.242188 212.6875 112.675781 214.582031 112.429688 C 216.472656 112.183594 222.648438 116.058594 218.039062 130.320312 C 218.039062 130.320312 218.121094 132.378906 220.097656 129.328125 C 222.074219 126.277344 222.734375 120.425781 222.15625 117.625 C 222.15625 117.625 221.003906 111.933594 219.769531 110.367188 C 219.769531 110.367188 222.320312 109.792969 223.472656 112.429688 C 223.390625 112.347656 215.898438 98.414062 208.652344 105.667969 Z M 208.652344 105.667969 " fill-opacity="1" fill-rule="nonzero"/><path fill="#000830" d="M 156.277344 129.492188 C 155.867188 128.753906 165.832031 120.753906 170.6875 119.023438 C 170.6875 119.023438 169.949219 125.785156 163.03125 130.484375 C 163.03125 130.484375 172.746094 125.535156 174.722656 120.839844 C 176.699219 116.140625 178.757812 112.757812 180.816406 112.101562 C 180.816406 112.101562 168.628906 113.335938 154.960938 123.722656 C 154.960938 123.722656 150.761719 134.441406 143.925781 141.941406 C 143.925781 141.941406 154.382812 131.800781 162.207031 130.320312 C 162.289062 130.320312 156.691406 130.152344 156.277344 129.492188 Z M 156.277344 129.492188 " fill-opacity="1" fill-rule="nonzero"/><g clip-path="url(#23b2b50985)"><path fill="#000830" d="M 294.128906 178.378906 C 292.644531 161.234375 277.824219 160.410156 277.824219 160.410156 C 262.421875 99.488281 220.34375 83.410156 207.332031 79.949219 C 205.441406 75.167969 203.546875 73.023438 200.085938 65.6875 C 191.6875 47.632812 198.933594 31.476562 198.933594 31.476562 C 176.863281 45.65625 174.558594 68.242188 174.890625 76.402344 C 168.136719 76.980469 162.535156 78.382812 162.535156 78.382812 C 159.242188 70.632812 145.738281 66.265625 135.28125 60.164062 C 124.820312 53.980469 122.515625 42.6875 122.515625 42.6875 C 108.765625 66.429688 121.941406 93.632812 127.785156 97.921875 C 133.632812 102.207031 140.796875 111.027344 133.632812 112.101562 C 126.46875 113.253906 122.84375 118.53125 122.515625 124.710938 C 122.269531 130.894531 125.644531 127.351562 125.890625 131.886719 C 125.480469 137.160156 116.585938 148.371094 111.234375 152.824219 C 108.105469 153.402344 102.503906 155.296875 102.503906 160.65625 C 102.503906 164.941406 106.871094 167.828125 110.246094 169.476562 C 114.609375 176.894531 124.082031 176.976562 124.082031 176.976562 C 125.234375 182.253906 128.527344 185.140625 128.527344 185.140625 C 119.796875 188.601562 115.269531 198.082031 113.457031 202.78125 C 109.175781 202.453125 104.894531 203.195312 101.269531 204.84375 C 90.976562 209.542969 93.777344 216.21875 93.777344 216.21875 C 93.777344 216.21875 85.378906 221.164062 78.789062 225.863281 C 72.121094 230.5625 79.203125 240.867188 70.636719 251.832031 C 62.074219 262.796875 67.671875 273.511719 72.777344 287.445312 C 77.882812 301.378906 94.929688 293.710938 94.929688 293.710938 C 103.90625 297.007812 111.5625 297.996094 117.65625 297.75 C 116.585938 303.355469 115.105469 312.753906 115.847656 318.773438 C 116.917969 327.757812 143.925781 343.421875 143.925781 343.421875 C 170.113281 327.757812 224.957031 314.898438 224.957031 314.898438 C 224.957031 314.898438 224.132812 310.859375 224.707031 301.378906 C 225.367188 291.898438 235.824219 289.175781 247.683594 286.539062 C 259.460938 283.984375 265.71875 274.089844 265.71875 274.089844 C 283.503906 273.429688 288.117188 255.046875 288.117188 255.046875 C 292.644531 252.902344 309.113281 236.582031 309.609375 213.167969 C 309.9375 189.921875 294.128906 178.378906 294.128906 178.378906 Z M 272.058594 169.230469 C 284.246094 169.640625 283.175781 176.320312 283.175781 176.320312 C 260.53125 170.796875 244.554688 194.703125 239.203125 204.183594 C 239.039062 204.183594 238.871094 204.183594 238.789062 204.265625 C 226.765625 205.832031 223.472656 212.425781 222.980469 217.703125 L 216.144531 219.269531 C 214.25 213.746094 215.898438 211.601562 215.898438 211.601562 C 224.296875 209.707031 239.039062 193.714844 243.15625 186.871094 C 247.191406 179.945312 259.789062 168.816406 272.058594 169.230469 Z M 183.371094 245.648438 C 175.960938 241.9375 177.6875 231.46875 177.6875 231.46875 C 173.570312 231.222656 172.664062 226.195312 175.960938 222.484375 C 179.253906 218.773438 185.511719 219.597656 185.511719 219.597656 C 180.488281 223.96875 179.007812 237.488281 183.371094 245.648438 Z M 171.429688 296.84375 C 161.714844 287.855469 166.324219 273.511719 166.324219 273.511719 L 162.949219 271.617188 C 166.652344 268.074219 169.535156 265.023438 171.84375 262.382812 C 165.417969 285.714844 171.429688 296.84375 171.429688 296.84375 Z M 160.808594 170.546875 C 161.546875 169.722656 164.761719 168.40625 168.300781 167.25 C 167.890625 169.230469 167.476562 171.207031 166.984375 173.019531 C 164.675781 173.515625 162.535156 173.847656 160.726562 174.011719 C 160.972656 171.785156 160.808594 170.546875 160.808594 170.546875 Z M 181.3125 168.898438 C 181.722656 172.691406 180.984375 178.132812 180.898438 178.957031 C 177.9375 181.019531 173.242188 183.820312 167.394531 185.058594 C 168.878906 180.933594 170.03125 177.144531 170.855469 174.011719 C 174.972656 172.855469 178.511719 171.042969 181.3125 168.898438 Z M 171.429688 171.785156 C 172.007812 169.3125 172.417969 167.332031 172.664062 165.933594 C 175.628906 165.191406 178.347656 164.777344 179.582031 165.191406 C 180.160156 165.355469 180.570312 165.933594 180.898438 166.671875 C 178.101562 169.0625 174.804688 170.714844 171.429688 171.785156 Z M 186.828125 164.695312 C 195.226562 167.167969 201.980469 162.714844 201.980469 162.714844 C 201.40625 169.722656 199.429688 177.308594 196.957031 184.398438 L 182.21875 191.488281 C 193.167969 170.546875 186.828125 164.695312 186.828125 164.695312 Z M 209.144531 151.917969 C 208.980469 146.0625 208.402344 142.519531 208.402344 142.519531 C 210.460938 142.519531 212.355469 142.355469 214.003906 141.941406 C 214.496094 142.765625 214.992188 143.671875 215.402344 144.582031 C 214.003906 147.714844 211.367188 150.1875 209.144531 151.917969 Z M 216.472656 146.804688 C 217.542969 149.363281 218.449219 152.082031 219.191406 154.800781 C 217.378906 157.769531 214.003906 162.304688 208.570312 165.4375 C 208.980469 161.316406 209.144531 157.523438 209.226562 154.308594 C 211.449219 152.824219 214.496094 150.269531 216.472656 146.804688 Z M 219.851562 157.523438 C 220.671875 161.234375 221.167969 164.941406 221.414062 168.652344 C 217.460938 176.320312 210.546875 178.710938 206.097656 179.453125 C 207.085938 175.328125 207.828125 171.453125 208.320312 167.746094 C 213.839844 165.023438 217.542969 160.820312 219.851562 157.523438 Z M 219.769531 139.632812 C 219.933594 139.550781 220.015625 139.46875 220.179688 139.386719 C 220.097656 139.550781 219.933594 139.632812 219.851562 139.800781 C 219.769531 139.714844 219.769531 139.632812 219.769531 139.632812 Z M 221.578125 172.195312 C 221.828125 176.730469 221.746094 181.101562 221.496094 185.140625 C 218.367188 188.023438 210.875 193.796875 201.488281 193.628906 C 203.132812 189.507812 204.453125 185.46875 205.523438 181.511719 C 209.804688 180.933594 216.886719 178.875 221.578125 172.195312 Z M 221.332031 187.941406 C 221.003906 192.3125 220.507812 196.023438 220.097656 198.90625 C 210.132812 206.160156 200.664062 206.160156 195.804688 205.5 C 197.699219 202.203125 199.261719 198.90625 200.664062 195.609375 C 201.074219 195.609375 201.40625 195.609375 201.816406 195.609375 C 210.546875 195.609375 217.460938 191.15625 221.332031 187.941406 Z M 195.226562 189.179688 C 193.167969 194.621094 190.945312 199.648438 189.050781 203.605469 C 183.617188 205.667969 175.136719 211.601562 175.136719 211.601562 L 177.441406 201.460938 C 172.746094 196.433594 174.722656 191.074219 176.371094 188.273438 L 177.523438 187.695312 C 177.195312 190.5 176.617188 196.679688 177.851562 197.339844 C 178.921875 197.835938 188.96875 192.640625 195.226562 189.179688 Z M 149.691406 253.070312 C 151.585938 260.652344 157.84375 265.515625 157.84375 265.515625 C 151.585938 264.691406 145.574219 254.46875 145.574219 254.46875 L 140.46875 256.613281 C 138.410156 247.546875 141.785156 240.125 144.007812 236.417969 C 145.738281 236.167969 147.960938 235.839844 150.265625 235.34375 C 148.457031 239.136719 148.207031 246.886719 149.691406 253.070312 Z M 158.585938 292.308594 C 155.371094 291.238281 151.914062 288.023438 149.855469 285.960938 C 151.417969 283.488281 151.996094 281.261719 151.996094 281.261719 C 153.476562 280.027344 154.878906 278.871094 156.277344 277.71875 C 156.113281 286.785156 158.585938 292.308594 158.585938 292.308594 Z M 137.421875 255.953125 C 138.574219 266.507812 149.113281 273.679688 149.113281 273.679688 C 136.515625 270.214844 134.703125 257.355469 134.703125 257.355469 L 130.421875 258.921875 C 127.949219 247.214844 135.445312 236.003906 140.386719 236.582031 C 140.632812 236.582031 140.960938 236.582031 141.292969 236.582031 C 139.644531 240.375 136.597656 248.203125 137.421875 255.953125 Z M 149.855469 230.808594 C 148.371094 230.070312 146.5625 228.996094 144.667969 227.675781 C 146.230469 226.605469 148.042969 225.203125 150.019531 223.636719 C 150.925781 225.535156 152.324219 227.761719 154.21875 229.984375 C 152.738281 230.316406 151.335938 230.644531 149.855469 230.808594 Z M 151.667969 222.402344 C 154.300781 220.257812 157.183594 217.785156 159.65625 215.640625 C 160.558594 218.363281 162.453125 222.980469 165.75 226.027344 C 163.359375 227.511719 160.066406 228.667969 156.441406 229.574219 C 154.136719 227.019531 152.65625 224.460938 151.667969 222.402344 Z M 167.972656 196.515625 C 167.972656 198.164062 168.054688 199.320312 168.054688 199.320312 L 152.738281 213.910156 C 156.441406 208.46875 159.488281 203.109375 161.960938 198 C 163.691406 197.835938 165.75 197.339844 167.972656 196.515625 Z M 162.949219 195.855469 C 164.347656 192.890625 165.582031 190.003906 166.570312 187.28125 C 167.972656 187.035156 169.289062 186.707031 170.605469 186.292969 C 168.878906 187.941406 168.21875 191.40625 167.972656 194.289062 C 166.160156 195.113281 164.511719 195.609375 162.949219 195.855469 Z M 161.21875 214.242188 C 164.84375 211.023438 167.558594 208.632812 167.558594 208.632812 C 168.546875 213.664062 172.996094 216.960938 172.996094 216.960938 C 177.605469 213.332031 182.628906 210.695312 186.335938 209.128906 C 185.183594 211.355469 184.441406 212.589844 184.441406 212.589844 C 180.160156 212.179688 174.558594 217.457031 167.722656 224.460938 C 167.640625 224.546875 167.476562 224.710938 167.3125 224.792969 C 163.855469 221.90625 161.960938 216.546875 161.21875 214.242188 Z M 166.160156 175.246094 C 166.242188 175.246094 166.324219 175.246094 166.40625 175.164062 C 165.335938 178.875 164.183594 182.417969 162.867188 185.714844 C 161.136719 185.800781 159.40625 185.714844 157.597656 185.46875 C 159.160156 181.757812 159.984375 178.542969 160.394531 176.070312 C 162.125 175.90625 164.101562 175.660156 166.160156 175.246094 Z M 162.042969 187.695312 C 160.808594 190.582031 159.488281 193.300781 158.171875 195.855469 C 155.949219 195.445312 154.382812 194.539062 153.3125 193.628906 C 154.714844 191.40625 155.867188 189.34375 156.773438 187.367188 C 158.585938 187.613281 160.3125 187.777344 162.042969 187.695312 Z M 155.042969 196.929688 C 155.703125 197.175781 156.359375 197.421875 157.183594 197.585938 C 156.523438 198.742188 155.867188 199.894531 155.207031 201.050781 C 151.914062 201.378906 149.113281 199.402344 149.113281 199.402344 C 150.265625 198 151.253906 196.597656 152.242188 195.195312 C 152.984375 195.855469 153.890625 196.433594 155.042969 196.929688 Z M 152.40625 205.417969 C 151.089844 207.398438 149.773438 209.210938 148.457031 210.777344 C 145.160156 210.941406 141.042969 209.953125 140.21875 207.808594 C 139.066406 204.84375 141.621094 203.109375 147.054688 204.84375 C 149.195312 205.5 151.007812 205.585938 152.40625 205.417969 Z M 141.867188 213.332031 C 143.265625 213.992188 144.503906 214.324219 145.492188 214.488281 C 141.867188 218.609375 139.316406 220.753906 139.316406 220.753906 L 139.066406 223.804688 C 137.171875 222.484375 135.363281 221.082031 133.714844 220.011719 C 137.089844 216.136719 141.867188 213.332031 141.867188 213.332031 Z M 134.867188 226.769531 C 137.914062 229.410156 140.304688 230.976562 141.867188 231.882812 C 140.386719 232.046875 139.066406 232.128906 137.914062 232.210938 C 135.28125 225.699219 122.515625 229.242188 122.515625 229.242188 C 122.515625 229.242188 120.539062 227.59375 115.679688 226.851562 C 123.667969 218.03125 129.105469 221.90625 134.867188 226.769531 Z M 129.433594 232.375 C 131.164062 232.210938 132.316406 232.707031 133.054688 233.367188 C 129.351562 236.664062 123.257812 247.710938 126.878906 263.125 C 130.996094 281.015625 146.3125 282.582031 146.3125 282.582031 C 127.128906 283.902344 123.585938 262.382812 123.585938 262.382812 C 120.703125 263.375 116.75 261.394531 116.585938 252.65625 C 116.421875 243.917969 124.410156 232.789062 129.433594 232.375 Z M 130.257812 295.441406 C 134.292969 293.957031 136.351562 292.308594 136.351562 292.308594 C 140.714844 293.214844 144.007812 291.898438 146.398438 289.917969 C 150.347656 294.207031 155.621094 297.667969 161.464844 300.222656 C 156.441406 302.449219 146.644531 306.652344 143.597656 306.816406 C 139.5625 307.066406 129.433594 302.285156 129.019531 299.976562 C 128.855469 299.070312 129.515625 297.253906 130.257812 295.441406 Z M 157.84375 249.769531 L 152.738281 252.328125 C 149.445312 243.835938 151.171875 237.898438 152.902344 234.765625 C 155.785156 234.191406 158.75 233.449219 161.464844 232.789062 C 160.808594 236.085938 159.902344 242.105469 161.054688 247.296875 C 162.785156 254.882812 169.371094 258.921875 169.371094 258.921875 C 162.703125 260.570312 157.84375 249.769531 157.84375 249.769531 Z M 166.984375 244.660156 L 163.691406 246.804688 C 161.878906 240.539062 163.359375 235.179688 164.675781 232.046875 C 167.722656 231.304688 169.785156 230.726562 169.785156 230.726562 C 168.796875 240.125 174.558594 247.792969 178.101562 251.585938 C 173.160156 252.492188 166.984375 244.660156 166.984375 244.660156 Z M 198.109375 217.621094 C 204.203125 217.621094 209.0625 221.578125 212.191406 225.039062 C 201.15625 229.65625 197.699219 242.847656 197.699219 242.847656 C 194.242188 243.257812 191.109375 244.246094 188.3125 245.402344 C 181.476562 235.675781 188.3125 217.621094 198.109375 217.621094 Z M 211.121094 207.726562 C 210.378906 209.046875 209.96875 214.488281 209.804688 217.539062 C 200.5 212.34375 190.289062 214.15625 190.289062 214.15625 C 191.933594 211.933594 193.335938 209.625 194.734375 207.316406 C 196.050781 207.5625 197.863281 207.726562 199.921875 207.726562 C 205.109375 207.726562 212.191406 206.492188 219.6875 201.542969 C 219.355469 203.359375 219.191406 204.429688 219.191406 204.429688 C 216.722656 206.328125 211.121094 207.726562 211.121094 207.726562 Z M 268.351562 165.355469 C 256.90625 166.34375 246.449219 173.929688 239.941406 183.078125 C 233.355469 192.230469 225.039062 199.238281 225.039062 199.238281 C 226.191406 192.148438 226.765625 185.714844 227.015625 179.945312 C 233.109375 174.257812 249.824219 159.832031 266.046875 157.359375 C 267.613281 162.304688 268.351562 165.355469 268.351562 165.355469 Z M 265.386719 155.542969 C 256.988281 156.945312 247.601562 161.398438 237.472656 168.816406 C 233.191406 171.949219 229.648438 175 227.097656 177.308594 C 227.179688 172.691406 227.015625 168.488281 226.683594 164.777344 C 239.695312 150.597656 254.847656 146.640625 261.4375 145.570312 C 263.082031 149.195312 264.316406 152.660156 265.386719 155.542969 Z M 260.613281 143.671875 C 253.695312 144.910156 239.203125 148.949219 226.355469 162.140625 C 226.027344 159.171875 225.53125 156.453125 225.039062 154.0625 C 225.695312 152.824219 227.671875 149.527344 231.542969 145.980469 C 235.90625 141.941406 243.648438 136.832031 255.917969 134.191406 C 257.730469 137.492188 259.292969 140.625 260.613281 143.671875 Z M 254.929688 132.378906 C 235.90625 136.5 227.425781 146.558594 224.378906 151.257812 C 223.226562 146.972656 221.910156 143.757812 220.839844 141.53125 C 229.898438 130.402344 237.308594 125.535156 242 123.394531 C 244.636719 122.238281 246.695312 121.746094 248.09375 121.578125 C 250.648438 125.207031 252.953125 128.835938 254.929688 132.378906 Z M 246.777344 119.847656 C 242.578125 120.671875 235.003906 123.558594 225.285156 133.617188 C 227.015625 130.484375 227.839844 126.691406 228.085938 122.980469 C 229.980469 119.683594 233.847656 114.492188 240.273438 112.015625 C 242.660156 114.492188 244.800781 117.128906 246.777344 119.847656 Z M 238.789062 110.449219 C 233.765625 112.59375 230.308594 116.140625 228.085938 119.1875 C 227.921875 115.890625 227.179688 112.839844 225.863281 110.203125 C 228.332031 108.472656 230.800781 106.164062 232.367188 104.515625 C 234.671875 106.410156 236.8125 108.390625 238.789062 110.449219 Z M 219.851562 95.941406 C 223.804688 98.085938 227.507812 100.476562 230.96875 103.195312 C 229.484375 104.761719 227.179688 106.824219 224.957031 108.472656 C 223.472656 106.164062 221.496094 104.351562 219.027344 103.03125 C 219.6875 101.546875 220.425781 99.074219 219.851562 95.941406 Z M 210.710938 91.984375 C 213.015625 92.808594 215.320312 93.714844 217.460938 94.789062 C 218.613281 98.167969 217.875 100.804688 217.214844 102.207031 C 215.15625 101.382812 212.851562 100.96875 210.296875 100.96875 C 210.214844 100.96875 210.214844 100.96875 210.132812 100.96875 C 210.957031 97.753906 211.039062 94.871094 210.710938 91.984375 Z M 213.015625 105.011719 C 228.332031 105.011719 225.695312 136.171875 215.898438 136.171875 C 206.015625 136.171875 206.179688 123.886719 206.179688 123.886719 C 203.296875 123.972656 200.582031 121.167969 199.675781 120.097656 C 200.085938 114.324219 202.476562 105.011719 213.015625 105.011719 Z M 182.710938 97.425781 C 180.160156 98.992188 171.265625 102.703125 171.265625 102.703125 L 169.371094 107.402344 C 157.925781 110.367188 148.042969 117.539062 148.042969 117.539062 L 149.9375 113.089844 C 147.46875 108.144531 147.796875 104.679688 148.457031 102.785156 C 148.457031 102.949219 148.457031 103.195312 148.457031 103.359375 C 148.621094 105.667969 150.925781 109.957031 150.925781 109.957031 C 163.277344 101.21875 177.113281 96.519531 181.96875 95.035156 Z M 164.59375 86.792969 L 179.253906 85.800781 L 181.148438 92.230469 C 166.984375 96.1875 152.492188 105.503906 152.492188 105.503906 L 151.089844 98.910156 Z M 123.257812 60.824219 C 124.820312 64.699219 137.007812 75.003906 146.398438 77.558594 C 155.867188 80.113281 158.007812 85.882812 158.007812 85.882812 L 151.417969 92.066406 C 151.417969 92.066406 146.808594 81.761719 139.234375 80.03125 C 131.65625 78.300781 129.515625 73.765625 129.515625 73.765625 C 130.421875 82.257812 140.136719 92.480469 142.03125 94.457031 C 139.480469 91.738281 136.515625 83.164062 136.515625 83.164062 C 136.515625 83.164062 141.375 87.449219 145.078125 92.066406 C 147.300781 94.789062 148.042969 97.589844 148.289062 99.816406 L 147.054688 102.042969 C 123.667969 92.5625 123.257812 60.824219 123.257812 60.824219 Z M 114.199219 166.179688 C 115.847656 166.015625 117.082031 165.273438 117.082031 165.273438 C 118.070312 170.136719 121.691406 171.703125 121.691406 171.703125 C 117.328125 170.628906 115.1875 167.992188 114.199219 166.179688 Z M 113.621094 159.582031 C 118.398438 159.582031 123.832031 158.101562 123.832031 158.101562 C 119.140625 162.386719 115.1875 160.65625 113.621094 159.582031 Z M 122.679688 165.933594 C 122.515625 162.46875 129.679688 156.945312 132.234375 156.78125 C 134.785156 156.617188 129.105469 162.222656 129.105469 162.222656 C 135.527344 160.65625 139.5625 154.472656 138.410156 151.503906 C 137.257812 148.539062 132.726562 150.351562 125.234375 153.648438 C 117.820312 156.945312 115.679688 155.542969 115.679688 155.542969 C 135.855469 141.695312 140.386719 127.761719 140.386719 127.761719 C 139.066406 130.234375 135.527344 132.625 135.527344 132.625 C 135.527344 132.625 137.503906 130.484375 137.421875 126.609375 C 137.257812 122.734375 133.304688 123.722656 133.304688 123.722656 C 133.714844 120.425781 138.984375 120.015625 140.136719 118.613281 C 141.292969 117.210938 143.019531 114.574219 143.019531 114.574219 C 142.363281 118.199219 144.089844 123.804688 144.089844 123.804688 C 165.089844 109.460938 187.160156 104.925781 187.160156 104.925781 L 190.121094 107.316406 C 175.546875 72.363281 189.710938 49.613281 189.710938 49.613281 C 185.183594 61.648438 200.417969 85.636719 203.464844 92.726562 C 206.429688 99.816406 200.5 106.492188 200.5 106.492188 C 202.394531 101.796875 200.5 93.222656 196.214844 88.027344 C 191.933594 82.917969 187.40625 67.417969 187.40625 67.417969 C 183.125 84.8125 191.027344 100.476562 191.027344 100.476562 C 188.0625 92.808594 189.300781 83.824219 189.300781 83.824219 C 189.300781 83.824219 190.289062 87.699219 193.417969 91.160156 C 196.546875 94.621094 199.261719 102.621094 193.003906 113.089844 C 191.027344 116.304688 189.546875 118.777344 188.394531 120.671875 C 187.652344 121.085938 186.910156 121.496094 186.171875 122.074219 C 180.488281 126.691406 182.054688 137.078125 182.054688 137.078125 C 184.027344 129.492188 187.324219 128.175781 193.167969 128.339844 C 199.015625 128.503906 203.132812 139.222656 199.015625 150.105469 C 194.898438 160.984375 188.722656 157.109375 188.722656 157.109375 C 193.003906 148.703125 186.253906 145.488281 186.253906 145.488281 C 187.570312 146.3125 187.980469 150.1875 186.003906 154.472656 C 184.027344 158.757812 181.3125 162.304688 169.289062 162.882812 C 157.265625 163.457031 145.242188 178.792969 145.242188 178.792969 C 145.242188 178.792969 137.914062 180.109375 134.785156 179.617188 C 131.65625 179.203125 131.820312 175.578125 131.820312 175.578125 C 134.539062 176.730469 140.714844 173.847656 144.996094 167.992188 C 145.574219 167.167969 146.398438 166.261719 147.386719 165.273438 C 151.585938 163.707031 165.171875 158.84375 172.996094 158.183594 C 182.300781 157.359375 184.195312 154.472656 183.453125 150.1875 C 182.710938 145.898438 170.855469 143.425781 170.855469 143.425781 C 159.820312 145.980469 138.574219 170.628906 133.960938 171.785156 C 129.433594 172.855469 122.84375 169.394531 122.679688 165.933594 Z M 154.960938 158.265625 C 160.972656 153.320312 167.722656 148.621094 170.441406 148.042969 C 175.054688 147.054688 179.171875 149.363281 179.335938 150.929688 C 179.5 152.496094 175.875 153.894531 175.875 153.894531 C 170.03125 153.730469 160.394531 156.535156 154.960938 158.265625 Z M 147.136719 190.746094 C 149.527344 193.628906 145.574219 198.578125 143.679688 198.328125 C 141.785156 198.082031 138.820312 199.152344 138.820312 199.152344 C 132.234375 203.605469 135.28125 210.859375 135.28125 210.859375 C 134.042969 211.765625 132.5625 213.582031 131.492188 214.816406 C 128.855469 209.625 124.902344 206.328125 120.539062 204.511719 C 129.269531 185.46875 144.832031 187.941406 147.136719 190.746094 Z M 112.140625 208.550781 C 118.070312 207.808594 122.761719 213.332031 125.234375 217.125 C 122.597656 217.289062 120.703125 218.199219 120.703125 218.199219 C 114.691406 212.589844 109.09375 216.464844 109.09375 216.464844 L 101.765625 214.980469 C 101.847656 214.980469 103.082031 209.625 112.140625 208.550781 Z M 113.789062 288.765625 C 109.503906 288.515625 104.648438 288.1875 104.648438 288.1875 C 108.929688 283.160156 115.1875 281.59375 115.1875 281.59375 C 115.1875 281.59375 108.765625 280.601562 101.1875 283.570312 C 93.613281 286.539062 82.90625 287.28125 76.894531 277.140625 C 70.882812 267 73.4375 261.972656 79.203125 253.5625 C 84.882812 245.15625 79.035156 238.972656 85.378906 231.386719 C 91.636719 223.804688 100.363281 221.082031 106.789062 221.496094 C 110.824219 221.742188 111.398438 224.546875 111.234375 226.523438 C 109.09375 226.523438 106.539062 226.6875 103.660156 227.183594 C 89.742188 229.410156 84.964844 257.519531 84.964844 257.519531 C 97.976562 229.574219 116.667969 235.757812 116.667969 235.757812 C 116.667969 235.757812 107.941406 246.804688 111.398438 262.382812 C 114.859375 277.964844 125.5625 285.550781 125.5625 285.550781 C 123.09375 288.023438 118.152344 289.011719 113.789062 288.765625 Z M 214.582031 310.03125 C 170.441406 317.945312 143.183594 335.753906 143.183594 335.753906 C 139.5625 333.199219 139.5625 325.695312 139.5625 325.695312 C 161.464844 317.945312 172.996094 307.890625 172.996094 307.890625 C 172.996094 307.890625 152.40625 318.441406 140.878906 318.855469 C 129.269531 319.265625 122.1875 300.636719 122.1875 300.636719 C 122.1875 300.636719 130.09375 312.671875 141.457031 313.332031 C 149.277344 313.742188 162.371094 307.230469 169.699219 303.191406 C 171.757812 303.769531 173.734375 304.179688 175.792969 304.511719 C 182.957031 305.664062 190.535156 304.839844 195.3125 303.933594 C 195.476562 304.261719 196.628906 306.160156 201.320312 307.972656 C 206.425781 309.867188 215.074219 303.4375 215.074219 303.4375 Z M 236.648438 278.707031 C 243.484375 270.792969 245.046875 262.382812 245.046875 262.382812 C 243.320312 268.8125 225.53125 279.777344 216.96875 282.335938 C 208.402344 284.890625 207.746094 289.421875 207.746094 289.421875 C 210.132812 286.867188 218.285156 287.527344 218.285156 287.527344 C 215.320312 293.957031 204.121094 300.800781 196.875 295.277344 C 189.546875 289.671875 183.78125 288.847656 183.78125 288.847656 C 184.851562 289.753906 186.910156 292.308594 189.050781 295.195312 C 183.945312 295.359375 175.628906 293.132812 176.453125 276.8125 C 177.769531 253.644531 196.382812 249.113281 196.382812 249.113281 C 194.242188 257.601562 198.109375 266.257812 198.109375 266.257812 C 204.367188 237.488281 222.566406 229.738281 230.636719 227.679688 C 257.152344 232.625 263.082031 260.898438 263.082031 260.898438 C 259.625 275.246094 236.648438 278.707031 236.648438 278.707031 Z M 276.753906 259.167969 C 269.257812 220.753906 255.34375 231.882812 255.34375 231.882812 C 245.046875 220.589844 235.085938 219.105469 228.742188 219.679688 C 232.53125 204.59375 250.976562 209.707031 266.292969 225.203125 C 282.515625 241.773438 276.753906 259.167969 276.753906 259.167969 Z M 284.65625 244.332031 C 284.328125 229.492188 266.046875 208.386719 247.601562 204.59375 C 251.058594 196.269531 258.222656 189.097656 266.210938 185.550781 C 275.433594 181.511719 296.269531 184.808594 298.410156 209.625 C 300.46875 234.355469 284.65625 244.332031 284.65625 244.332031 Z M 284.65625 244.332031 " fill-opacity="1" fill-rule="nonzero"/></g><path fill="#000830" d="M 215.734375 132.875 C 219.027344 132.875 221.746094 127.84375 221.746094 121.582031 C 221.746094 115.398438 219.027344 110.285156 215.734375 110.285156 C 212.4375 110.285156 209.722656 115.316406 209.722656 121.582031 C 209.804688 127.84375 212.4375 132.875 215.734375 132.875 Z M 214.25 113.832031 C 215.898438 113.832031 217.214844 117.539062 217.214844 122.238281 C 217.214844 126.9375 215.898438 130.648438 214.25 130.648438 C 212.605469 130.648438 211.285156 126.9375 211.285156 122.238281 C 211.285156 117.539062 212.605469 113.832031 214.25 113.832031 Z M 214.25 113.832031 " fill-opacity="1" fill-rule="nonzero"/></svg>